mtllib Tile_+034_+029_L18_00010.mtl
v 6.93774344e+03 7.00000000e+03 2.77201043e+01
v 6.93355075e+03 7.00000000e+03 3.19643261e+01
v 6.93281615e+03 7.00000000e+03 3.37336860e+01
v 6.93264095e+03 7.00000000e+03 2.76163870e+01
v 6.92638750e+03 7.00000000e+03 2.73867227e+01
v 6.87908217e+03 7.00000000e+03 4.13564242e+01
v 6.88088501e+03 7.00000000e+03 3.89878679e+01
v 6.88097050e+03 7.00000000e+03 3.41706072e+01
v 6.89700538e+03 7.00000000e+03 3.01257867e+01
v 6.89685733e+03 7.00000000e+03 3.29667902e+01
v 6.89670263e+03 7.00000000e+03 3.88317793e+01
v 6.89831772e+03 7.00000000e+03 4.13082516e+01
v 6.89019968e+03 7.00000000e+03 4.43746620e+01
v 6.93189428e+03 7.00000000e+03 3.28088394e+01
v 6.93267259e+03 7.00000000e+03 3.07429031e+01
v 6.93285627e+03 7.00066710e+03 3.24010565e+01
v 6.90716113e+03 7.00000000e+03 2.72347780e+01
v 6.91388976e+03 7.00000000e+03 2.71030823e+01
v 6.89923993e+03 7.00000000e+03 2.70423682e+01
v 6.90964664e+03 7.00426108e+03 2.73468030e+01
v 6.87552569e+03 7.00000000e+03 2.71854721e+01
v 6.88100359e+03 7.00000000e+03 3.16101471e+01
v 6.88084222e+03 7.00000000e+03 2.71520735e+01
v 6.92277954e+03 7.05532982e+03 2.71636418e+01
v 6.92174870e+03 7.05205115e+03 3.02746006e+01
v 6.92113927e+03 7.05025727e+03 3.83668044e+01
v 6.92292829e+03 7.04458890e+03 3.96990829e+01
v 6.92038538e+03 7.04181991e+03 4.36095126e+01
v 6.93647173e+03 7.05211382e+03 3.11537164e+01
v 6.91575124e+03 7.02848325e+03 3.07646804e+01
v 6.91590050e+03 7.02967778e+03 2.89419872e+01
v 6.91542615e+03 7.02557333e+03 3.01651629e+01
v 6.91514813e+03 7.02317459e+03 3.12355946e+01
v 6.91447716e+03 7.01947436e+03 3.02550510e+01
v 6.91436439e+03 7.02290256e+03 2.72856662e+01
v 6.91870363e+03 7.03037857e+03 3.04325408e+01
v 6.91671380e+03 7.03024810e+03 2.90607031e+01
v 6.91667238e+03 7.02648031e+03 3.58942381e+01
v 6.93661417e+03 7.00329266e+03 2.72708929e+01
v 6.91174276e+03 7.01987681e+03 2.76238899e+01
v 6.91573532e+03 7.03157179e+03 3.03595806e+01
v 6.91851938e+03 7.03108207e+03 2.94963848e+01
v 6.91705328e+03 7.02835982e+03 3.00852868e+01
v 6.91639787e+03 7.02687248e+03 3.08752593e+01
v 6.91570607e+03 7.02801178e+03 3.65076691e+01
v 6.91356108e+03 7.02514060e+03 3.61861484e+01
v 6.91670335e+03 7.02949402e+03 3.00203465e+01
v 6.91615538e+03 7.02871575e+03 2.95993696e+01
v 6.91897095e+03 7.02853408e+03 3.12709773e+01
v 6.93522847e+03 7.04758670e+03 3.03636605e+01
v 6.92987229e+03 7.04034136e+03 3.03235914e+01
v 6.93102798e+03 7.04470835e+03 3.11880004e+01
v 6.91861115e+03 7.02515056e+03 3.02630664e+01
v 6.93228661e+03 7.05324089e+03 3.09357916e+01
v 6.93298791e+03 7.05873653e+03 3.03372737e+01
v 6.93503031e+03 7.05822000e+03 3.00829928e+01
v 6.93130892e+03 7.05487220e+03 3.01381564e+01
v 6.92856049e+03 7.05616281e+03 3.03696691e+01
v 6.93209754e+03 7.05782280e+03 3.02362716e+01
v 6.92866958e+03 7.05869505e+03 3.01051023e+01
v 6.93130390e+03 7.05643405e+03 3.02321293e+01
v 6.93422500e+03 7.05634243e+03 3.02341652e+01
v 6.93513878e+03 7.05469673e+03 3.09606154e+01
v 6.93769374e+03 7.05840872e+03 3.11000115e+01
v 6.93541605e+03 7.05101146e+03 2.72247004e+01
v 6.93351809e+03 7.05454554e+03 3.02658919e+01
v 6.92772798e+03 7.05444734e+03 3.06888604e+01
v 6.92391171e+03 7.04425440e+03 3.09861575e+01
v 6.92216573e+03 7.04999551e+03 3.05414728e+01
v 6.91504289e+03 7.06028384e+03 3.76258186e+01
v 6.91681229e+03 7.05804454e+03 2.88085766e+01
v 6.92539353e+03 7.05669837e+03 3.01791727e+01
v 6.92698883e+03 7.05833653e+03 3.02032494e+01
v 6.92077901e+03 7.05458382e+03 2.75189116e+01
v 6.92099214e+03 7.05548588e+03 2.78232587e+01
v 6.92066979e+03 7.05446771e+03 3.06519981e+01
v 6.92365691e+03 7.03664192e+03 3.04334694e+01
v 6.92072518e+03 7.03288867e+03 3.03298844e+01
v 6.92587858e+03 7.03680870e+03 3.06388166e+01
v 6.92384904e+03 7.03412986e+03 3.06298320e+01
v 6.92250830e+03 7.03327513e+03 3.12751140e+01
v 6.92525815e+03 7.03682632e+03 3.12346311e+01
v 6.92506257e+03 7.03378888e+03 3.03018473e+01
v 6.92831878e+03 7.05828690e+03 2.84549935e+01
v 6.92080373e+03 7.05535718e+03 3.04360979e+01
v 6.92184427e+03 7.02952142e+03 3.02858137e+01
v 6.91985621e+03 7.03153685e+03 3.03512360e+01
v 6.92054127e+03 7.03428069e+03 3.07757482e+01
v 6.91840620e+03 7.03310100e+03 3.00868476e+01
v 6.92159211e+03 7.03322755e+03 2.71655729e+01
v 6.91894284e+03 7.02754173e+03 2.83349923e+01
v 6.92709409e+03 7.03953557e+03 3.13013482e+01
v 6.92606628e+03 7.03963762e+03 3.11254769e+01
v 6.91584484e+03 7.01708953e+03 2.77187196e+01
v 6.91857743e+03 7.01492306e+03 2.75502915e+01
v 6.91952568e+03 7.02080372e+03 2.84684936e+01
v 6.91797331e+03 7.02063527e+03 2.81434311e+01
v 6.91913413e+03 7.02208953e+03 2.76832840e+01
v 6.92040967e+03 7.01918820e+03 2.74567821e+01
v 6.92018459e+03 7.02083054e+03 2.71650682e+01
v 6.92591042e+03 7.01862002e+03 2.72196242e+01
v 6.92432027e+03 7.01058487e+03 2.73139234e+01
v 6.91442957e+03 7.00607815e+03 2.72228542e+01
v 6.91418053e+03 7.01630909e+03 2.72189220e+01
v 6.91306735e+03 7.01746371e+03 2.92828230e+01
v 6.91464527e+03 7.01645681e+03 2.78402999e+01
v 6.91244684e+03 7.01786388e+03 2.80425100e+01
v 6.91885578e+03 7.02948395e+03 2.72211851e+01
v 6.91860696e+03 7.05754004e+03 2.72354577e+01
v 6.91796884e+03 7.05744800e+03 2.85677749e+01
v 6.92182224e+03 7.02355102e+03 2.77578701e+01
v 6.91932484e+03 7.02558223e+03 2.66424573e+01
v 6.91734724e+03 7.01975019e+03 2.67289417e+01
v 6.92027326e+03 7.02480108e+03 2.76826318e+01
v 6.92424121e+03 7.02596587e+03 2.79748958e+01
v 6.91867873e+03 7.05569265e+03 2.81381247e+01
v 6.91986140e+03 7.05667900e+03 2.63607043e+01
v 6.92478292e+03 7.02907597e+03 2.74893027e+01
v 6.93186897e+03 7.03566892e+03 2.70041754e+01
v 6.92866271e+03 7.03172786e+03 2.77899763e+01
v 6.93312498e+03 7.04761824e+03 2.80585790e+01
v 6.92769252e+03 7.04167384e+03 2.70281548e+01
v 6.92556042e+03 7.03821840e+03 2.75439020e+01
v 6.92806611e+03 7.03583512e+03 2.75242475e+01
v 6.93051112e+03 7.03616678e+03 2.77872884e+01
v 6.92600101e+03 7.03455717e+03 2.78556451e+01
v 6.92369803e+03 7.02264669e+03 2.73934661e+01
v 6.92278793e+03 7.03328530e+03 2.65404696e+01
v 6.92254588e+03 7.02982114e+03 2.77443911e+01
v 6.92817963e+03 7.02891056e+03 2.72781628e+01
v 6.93095537e+03 7.04527203e+03 2.66411477e+01
v 6.93208459e+03 7.00535074e+03 2.74963415e+01
v 6.93464505e+03 7.01471275e+03 2.74324220e+01
v 6.91279528e+03 7.00863863e+03 2.77784174e+01
v 6.93423584e+03 7.03158830e+03 2.70523164e+01
v 6.92508580e+03 7.03558777e+03 2.66218217e+01
v 6.93295188e+03 7.04768416e+03 2.66050369e+01
v 6.93233111e+03 7.04012155e+03 2.68240157e+01
v 6.92640411e+03 7.03931456e+03 2.64509943e+01
v 6.93294031e+03 7.04918245e+03 2.70463983e+01
v 6.92939916e+03 7.03900466e+03 2.68384603e+01
v 6.92525321e+03 7.05740090e+03 2.71101818e+01
v 6.91969213e+03 7.05824231e+03 2.64790105e+01
v 6.92144285e+03 7.05804320e+03 2.70968285e+01
v 6.92387066e+03 7.06042607e+03 2.65897368e+01
v 6.92300591e+03 7.06010996e+03 2.71109036e+01
v 6.93506701e+03 7.04997618e+03 2.65077196e+01
v 6.91761669e+03 7.02703548e+03 2.66137778e+01
v 6.92001903e+03 7.02972747e+03 2.65795604e+01
v 6.91445816e+03 7.06004351e+03 2.82886705e+01
v 6.91477308e+03 7.01764510e+03 2.66577330e+01
v 6.91312776e+03 7.01873191e+03 2.67585274e+01
v 6.91804187e+03 7.02221682e+03 2.70686245e+01
v 6.92659925e+03 7.02878503e+03 2.80336278e+01
v 6.91644040e+03 7.02581364e+03 2.75014154e+01
v 6.91457355e+03 7.02165173e+03 2.65690230e+01
v 6.91719454e+03 7.03238995e+03 2.98495488e+01
v 6.91401693e+03 7.01098212e+03 2.75885589e+01
v 6.91638639e+03 7.02457854e+03 2.64736535e+01
v 6.92745291e+03 7.05754193e+03 2.64805382e+01
v 6.92412838e+03 7.03629043e+03 2.67446367e+01
v 6.93412500e+03 7.06269758e+03 2.80566102e+01
v 6.93313593e+03 7.06188504e+03 2.73908067e+01
v 6.93239448e+03 7.06228867e+03 2.86227823e+01
v 6.93476447e+03 7.06238221e+03 2.93069388e+01
v 6.93115567e+03 7.06266179e+03 2.65244308e+01
v 6.93164504e+03 7.05909577e+03 2.64718138e+01
v 6.93284604e+03 7.06201169e+03 2.64390936e+01
v 6.91740904e+03 7.06025402e+03 2.72154343e+01
v 6.92130450e+03 7.05911421e+03 2.63702851e+01
v 6.91939521e+03 7.05976151e+03 2.71138229e+01
v 6.91957843e+03 7.06088362e+03 2.65446711e+01
v 6.91720560e+03 7.06256571e+03 2.81381786e+01
v 6.91633137e+03 7.06134324e+03 2.68550032e+01
v 6.93264205e+03 7.06099661e+03 3.03546985e+01
v 6.93323210e+03 7.06179845e+03 2.97513421e+01
v 6.92915415e+03 7.05974013e+03 3.02857657e+01
v 6.93248546e+03 7.06294914e+03 3.01626613e+01
v 6.92971301e+03 7.06079535e+03 3.01169904e+01
v 6.93553958e+03 7.06088379e+03 3.04719840e+01
v 6.93470581e+03 7.05952574e+03 3.05745342e+01
v 6.93698938e+03 7.06286575e+03 3.02490961e+01
v 6.93639701e+03 7.06097296e+03 3.00153501e+01
v 6.89898913e+03 7.02863048e+03 4.08878976e+01
v 6.89482016e+03 7.03143009e+03 4.08256169e+01
v 6.91866831e+03 7.03797235e+03 4.41822867e+01
v 6.91055264e+03 7.03412406e+03 4.51456312e+01
v 6.90989192e+03 7.03140112e+03 4.57111019e+01
v 6.90399754e+03 7.06245726e+03 4.08615619e+01
v 6.90158720e+03 7.04812275e+03 4.29194080e+01
v 6.90036356e+03 7.00819761e+03 2.84631326e+01
v 6.90038901e+03 7.00746954e+03 2.75258986e+01
v 6.90142572e+03 7.00601895e+03 3.91031788e+01
v 6.91202302e+03 7.01677732e+03 3.03513843e+01
v 6.91227234e+03 7.01807837e+03 2.85581090e+01
v 6.91268627e+03 7.01799830e+03 2.92104042e+01
v 6.90928747e+03 7.01871563e+03 3.00807431e+01
v 6.90957178e+03 7.01970954e+03 2.87203665e+01
v 6.90879871e+03 7.01988659e+03 3.09458066e+01
v 6.90284631e+03 7.01891259e+03 2.95020545e+01
v 6.90184218e+03 7.01844558e+03 2.83910480e+01
v 6.90096438e+03 7.01998639e+03 2.93471606e+01
v 6.90158671e+03 7.00469232e+03 2.72611571e+01
v 6.90133979e+03 7.00415093e+03 2.99057092e+01
v 6.90750178e+03 7.02131254e+03 2.96158369e+01
v 6.90234237e+03 7.01768045e+03 2.98874764e+01
v 6.90075515e+03 7.01681628e+03 3.02788869e+01
v 6.91263867e+03 7.02499623e+03 3.09264971e+01
v 6.91149381e+03 7.01810146e+03 3.11993300e+01
v 6.91026510e+03 7.02511172e+03 2.98016324e+01
v 6.90574322e+03 7.02462101e+03 2.96409643e+01
v 6.90330255e+03 7.01896296e+03 2.83500979e+01
v 6.90579086e+03 7.02242930e+03 2.94144910e+01
v 6.89867396e+03 7.02189984e+03 2.93298327e+01
v 6.90308815e+03 7.02676766e+03 2.96321975e+01
v 6.88834394e+03 7.02737723e+03 2.96725658e+01
v 6.88927053e+03 7.02772777e+03 2.88460077e+01
v 6.90006413e+03 7.02652775e+03 2.95022190e+01
v 6.89082288e+03 7.02678516e+03 2.86684830e+01
v 6.89253557e+03 7.02357276e+03 2.95913641e+01
v 6.89167247e+03 7.02529654e+03 2.94826999e+01
v 6.89772024e+03 7.02234850e+03 2.82611083e+01
v 6.88156237e+03 7.03370292e+03 2.90206470e+01
v 6.88528422e+03 7.03072083e+03 2.92587050e+01
v 6.88665970e+03 7.02847779e+03 2.99524042e+01
v 6.89200752e+03 7.03269488e+03 2.92813791e+01
v 6.88551137e+03 7.03897507e+03 2.92285491e+01
v 6.88721084e+03 7.03702918e+03 3.61669375e+01
v 6.89880418e+03 7.02865571e+03 2.96191851e+01
v 6.88793092e+03 7.02953813e+03 2.93851964e+01
v 6.89387229e+03 7.02551759e+03 2.93430672e+01
v 6.87620601e+03 7.04283816e+03 2.93730194e+01
v 6.87702909e+03 7.04385575e+03 3.13052282e+01
v 6.87497657e+03 7.04234366e+03 3.06587394e+01
v 6.87477034e+03 7.03770562e+03 2.94173567e+01
v 6.87457698e+03 7.04065363e+03 2.93413252e+01
v 6.87564026e+03 7.04560160e+03 2.96286160e+01
v 6.87490235e+03 7.04654437e+03 3.14832417e+01
v 6.88418518e+03 7.04076170e+03 3.04758509e+01
v 6.87921122e+03 7.04262249e+03 2.96856359e+01
v 6.88318907e+03 7.04203033e+03 2.94748408e+01
v 6.87916169e+03 7.04265421e+03 3.43236682e+01
v 6.88324068e+03 7.04210480e+03 3.28741107e+01
v 6.89324168e+03 7.03165413e+03 3.59038336e+01
v 6.87896282e+03 7.02700151e+03 2.87464568e+01
v 6.87740055e+03 7.02419191e+03 2.92867238e+01
v 6.88083453e+03 7.03065277e+03 2.89827911e+01
v 6.88407574e+03 7.02879136e+03 2.90049121e+01
v 6.88269363e+03 7.03459687e+03 2.94360324e+01
v 6.88238810e+03 7.03223087e+03 3.01160948e+01
v 6.88468305e+03 7.02131260e+03 2.99751137e+01
v 6.88505532e+03 7.01818654e+03 2.94639430e+01
v 6.88230613e+03 7.02009921e+03 2.95748292e+01
v 6.87946014e+03 7.02223886e+03 2.98802119e+01
v 6.88839001e+03 7.02535654e+03 2.85778869e+01
v 6.88400255e+03 7.02311607e+03 2.85411564e+01
v 6.88042464e+03 7.02407089e+03 3.00243953e+01
v 6.87690923e+03 7.00300414e+03 3.06626077e+01
v 6.87958684e+03 7.00112377e+03 3.00531120e+01
v 6.88441911e+03 7.01847044e+03 3.32166742e+01
v 6.87514285e+03 7.00426956e+03 2.75635611e+01
v 6.88117657e+03 7.02082946e+03 3.34946184e+01
v 6.89954471e+03 7.00341207e+03 2.99675512e+01
v 6.89418070e+03 7.01117575e+03 3.24072354e+01
v 6.89650258e+03 7.00961458e+03 3.04461272e+01
v 6.89821199e+03 7.02030657e+03 3.04821335e+01
v 6.89760627e+03 7.01886799e+03 3.03371390e+01
v 6.90007743e+03 7.01894963e+03 3.04659396e+01
v 6.87709402e+03 7.00292130e+03 3.50649701e+01
v 6.87738688e+03 7.02348966e+03 3.60243540e+01
v 6.87838293e+03 7.02267601e+03 3.23705088e+01
v 6.89764757e+03 7.01645479e+03 2.81695362e+01
v 6.89812144e+03 7.02062906e+03 2.88550147e+01
v 6.89957561e+03 7.02067861e+03 2.81828885e+01
v 6.90132189e+03 7.00599049e+03 3.35814026e+01
v 6.90109179e+03 7.00578231e+03 2.93127294e+01
v 6.89963381e+03 7.00728036e+03 2.87404075e+01
v 6.89780023e+03 7.00857377e+03 3.31717125e+01
v 6.90227042e+03 7.01474798e+03 2.79948533e+01
v 6.89435778e+03 7.01119225e+03 2.84426274e+01
v 6.89770572e+03 7.00875472e+03 2.82725984e+01
v 6.89037607e+03 7.01421637e+03 2.82842005e+01
v 6.87786562e+03 7.00223798e+03 2.74146893e+01
v 6.90016141e+03 7.00277336e+03 2.73349632e+01
v 6.89937811e+03 7.01023769e+03 2.92142657e+01
v 6.89809653e+03 7.00960009e+03 2.75645845e+01
v 6.88799781e+03 7.01573445e+03 3.24112963e+01
v 6.88790515e+03 7.01602178e+03 2.90131049e+01
v 6.90350478e+03 7.02658647e+03 4.09871907e+01
v 6.89013638e+03 7.01763367e+03 2.86567576e+01
v 6.90337530e+03 7.01297748e+03 2.75275244e+01
v 6.89931825e+03 7.01139794e+03 2.76236196e+01
v 6.90811374e+03 7.01260133e+03 2.74854936e+01
v 6.90305397e+03 7.00825713e+03 2.73911572e+01
v 6.88795101e+03 7.02031662e+03 2.82847880e+01
v 6.89239992e+03 7.02198181e+03 2.83647510e+01
v 6.89191366e+03 7.01716278e+03 2.79872160e+01
v 6.90939811e+03 7.01996014e+03 2.65648270e+01
v 6.90629163e+03 7.02218799e+03 2.61325526e+01
v 6.90439695e+03 7.02268556e+03 2.61090150e+01
v 6.90300366e+03 7.02069667e+03 2.63852270e+01
v 6.90627210e+03 7.01668828e+03 2.80321341e+01
v 6.89730455e+03 7.01855444e+03 2.87379149e+01
v 6.90363060e+03 7.01672628e+03 2.80625119e+01
v 6.89592147e+03 7.02202913e+03 2.81318572e+01
v 6.90634554e+03 7.01391690e+03 2.89455194e+01
v 6.89563666e+03 7.01933196e+03 2.81313630e+01
v 6.90654581e+03 7.01566670e+03 2.79867712e+01
v 6.90918342e+03 7.01445570e+03 2.79852982e+01
v 6.90834355e+03 7.01535847e+03 2.67678361e+01
v 6.91204584e+03 7.00818090e+03 2.73258193e+01
v 6.90135879e+03 7.00639718e+03 2.73391714e+01
v 6.91131315e+03 7.01823911e+03 2.66062585e+01
v 6.91027108e+03 7.02092393e+03 2.72456429e+01
v 6.91149145e+03 7.02015104e+03 2.66892056e+01
v 6.89915136e+03 7.00279675e+03 2.73121526e+01
v 6.90326429e+03 7.01901738e+03 2.68200191e+01
v 6.90381192e+03 7.01996320e+03 2.59737853e+01
v 6.88315809e+03 7.04210533e+03 4.09242531e+01
v 6.88791092e+03 7.03495700e+03 3.78266825e+01
v 6.89315798e+03 7.03082024e+03 3.78319143e+01
v 6.90873515e+03 7.02532043e+03 4.10358376e+01
v 6.91662111e+03 7.02628645e+03 4.10716710e+01
v 6.89802137e+03 7.00119604e+03 3.83080688e+01
v 6.91326802e+03 7.02515968e+03 4.06508551e+01
v 6.91022008e+03 7.02675051e+03 4.12270653e+01
v 6.88386926e+03 7.01882012e+03 3.91779118e+01
v 6.89299830e+03 7.01368680e+03 4.12753633e+01
v 6.87972429e+03 7.02185597e+03 3.93329418e+01
v 6.88210319e+03 7.02156197e+03 4.12804565e+01
v 6.90235309e+03 7.06296674e+03 4.10298377e+01
v 6.88486850e+03 7.06294964e+03 4.30802478e+01
v 6.88852773e+03 7.01539818e+03 3.90858791e+01
v 6.90298067e+03 7.00628180e+03 4.12936818e+01
v 6.89863934e+03 7.00793437e+03 3.92854388e+01
v 6.89223225e+03 7.01260637e+03 3.92031316e+01
v 6.89467299e+03 7.03085310e+03 3.95951710e+01
v 6.89757292e+03 7.00877085e+03 3.65519546e+01
v 6.91365901e+03 7.05996633e+03 3.74253675e+01
v 6.91468130e+03 7.02727369e+03 4.07420194e+01
v 6.87463214e+03 7.04691197e+03 4.10353738e+01
v 6.87851469e+03 7.04382877e+03 4.10722549e+01
v 6.87817123e+03 7.04283924e+03 4.10289413e+01
v 6.91212346e+03 7.05796383e+03 3.98946024e+01
v 6.88743637e+03 7.04592004e+03 4.57772156e+01
v 6.88379459e+03 7.04272306e+03 4.08917757e+01
v 6.89581085e+03 7.00509310e+03 4.36663109e+01
v 6.88627759e+03 7.00562439e+03 4.67780577e+01
v 6.88785786e+03 7.00667421e+03 4.53914575e+01
v 6.88622221e+03 7.00541212e+03 4.53310252e+01
v 6.88960750e+03 7.00428527e+03 4.57403849e+01
v 6.88852782e+03 7.00605705e+03 4.69143166e+01
v 6.88758121e+03 7.00464261e+03 4.69112009e+01
v 6.88968361e+03 7.00518290e+03 4.68750819e+01
v 6.88871844e+03 7.00377253e+03 4.67856088e+01
v 6.89090560e+03 7.04554184e+03 4.53048618e+01
v 6.88217923e+03 7.04771653e+03 4.68704789e+01
v 6.87802597e+03 7.01259214e+03 4.58103158e+01
v 6.88500330e+03 7.00769592e+03 4.57412080e+01
v 6.87915285e+03 7.06030516e+03 4.65336961e+01
v 6.88058820e+03 7.06207589e+03 4.39585490e+01
v 6.89593139e+03 7.03987197e+03 4.65702492e+01
v 6.89689459e+03 7.03925723e+03 4.53251775e+01
v 6.91504896e+03 7.03914345e+03 4.39592038e+01
v 6.89450642e+03 7.06114191e+03 4.30971457e+01
v 6.88964788e+03 7.06214928e+03 4.30571944e+01
v 6.88423105e+03 7.06061035e+03 4.53889227e+01
v 6.87810011e+03 7.05436658e+03 4.72095753e+01
v 6.87622065e+03 7.06276858e+03 4.33423718e+01
v 6.90242661e+03 7.03692782e+03 4.50934230e+01
v 6.89550873e+03 7.03936717e+03 4.55840717e+01
v 6.91565247e+03 7.03132544e+03 4.10548382e+01
v 6.91571380e+03 7.03148113e+03 3.69233031e+01
v 6.92485476e+03 7.04122326e+03 4.05531618e+01
v 6.92611861e+03 7.03978814e+03 4.09110104e+01
v 6.92092297e+03 7.05560919e+03 3.77076090e+01
v 6.92065110e+03 7.05448918e+03 3.76841062e+01
v 6.92254860e+03 7.04858223e+03 3.90451914e+01
v 6.91908462e+03 7.05595388e+03 3.72349855e+01
v 6.92506349e+03 7.00463211e+03 3.64041160e+01
v 6.92335316e+03 7.00582442e+03 3.63976156e+01
v 6.92625810e+03 7.00379267e+03 3.64138575e+01
v 6.92411944e+03 7.00528463e+03 3.64004194e+01
v 6.92094494e+03 7.03448756e+03 4.09975441e+01
v 6.91474491e+03 7.03188291e+03 4.10158660e+01
v 6.91577994e+03 7.02797168e+03 4.10190173e+01
v 6.92488523e+03 7.03791869e+03 4.09940655e+01
v 6.92448942e+03 7.03939822e+03 4.11551061e+01
v 6.92151910e+03 7.03610085e+03 4.09446317e+01
v 6.91665985e+03 7.05348861e+03 4.08489956e+01
v 6.92104273e+03 7.03947103e+03 4.40350939e+01
v 6.87600336e+03 7.02475171e+03 3.38539090e+01
v 6.87522526e+03 7.00426500e+03 3.70571409e+01
v 6.87904302e+03 7.00145318e+03 3.93184938e+01
v 6.87606898e+03 7.00358922e+03 3.92195865e+01
v 6.89682715e+03 7.00000000e+03 3.69570203e+01
v 6.88769440e+03 7.01593153e+03 3.60702209e+01
v 6.88352475e+03 7.01905762e+03 3.66400374e+01
v 6.89234955e+03 7.03127300e+03 4.09773392e+01
v 6.89267559e+03 7.01230109e+03 3.63512570e+01
v 6.90205607e+03 7.02826272e+03 4.09721867e+01
v 6.88766384e+03 7.03507544e+03 4.10334390e+01
v 6.88743568e+03 7.03760217e+03 4.08894086e+01
v 6.88504806e+03 7.00657220e+03 4.69967637e+01
v 6.88645852e+03 7.00764252e+03 4.70151365e+01
v 6.88495631e+03 7.05369473e+03 4.56160623e+01
v 6.89285864e+03 7.03915466e+03 4.57050731e+01
v 6.89629844e+03 7.04089680e+03 4.50194008e+01
v 6.90129856e+03 7.03340869e+03 4.56857249e+01
v 6.87450001e+03 7.04717521e+03 3.14149556e+01
v 6.87450001e+03 7.04726395e+03 3.18660442e+01
v 6.87450001e+03 7.00474798e+03 2.75610784e+01
v 6.87450001e+03 7.00213997e+03 2.73126440e+01
v 6.87450001e+03 7.02915038e+03 2.94857662e+01
v 6.87450001e+03 7.02793755e+03 2.95816053e+01
v 6.87450001e+03 7.03741470e+03 2.94076959e+01
v 6.87450001e+03 7.03037141e+03 2.90277886e+01
v 6.87450001e+03 7.03759292e+03 2.94169207e+01
v 6.87450001e+03 7.00475546e+03 2.97849271e+01
v 6.87450001e+03 7.02583524e+03 3.12978549e+01
v 6.87450001e+03 7.02576932e+03 3.02872936e+01
v 6.87450001e+03 7.02583205e+03 2.98301642e+01
v 6.87450001e+03 7.04625220e+03 3.07101687e+01
v 6.87450001e+03 7.04575856e+03 2.96176578e+01
v 6.87450001e+03 7.03813453e+03 2.98031963e+01
v 6.87450001e+03 7.04055992e+03 2.94799437e+01
v 6.87450001e+03 7.04902616e+03 4.11905581e+01
v 6.87450001e+03 7.04891329e+03 4.11269419e+01
v 6.87450001e+03 7.04242112e+03 3.07147026e+01
v 6.87450001e+03 7.04393228e+03 3.01828319e+01
v 6.87450001e+03 7.04508470e+03 2.95521597e+01
v 6.87450001e+03 7.06189162e+03 4.24732199e+01
v 6.87450001e+03 7.06094335e+03 4.22384467e+01
v 6.87450001e+03 7.06001819e+03 4.18648012e+01
v 6.87450001e+03 7.05712433e+03 4.24364662e+01
v 6.87450001e+03 7.06203590e+03 3.78791727e+01
v 6.87450001e+03 7.06183021e+03 3.63608082e+01
v 6.87450001e+03 7.05436721e+03 4.34641327e+01
v 6.87450001e+03 7.04883812e+03 4.10753922e+01
v 6.87450001e+03 7.00479037e+03 3.56980898e+01
v 6.87450001e+03 7.00477216e+03 3.76850474e+01
v 6.87450001e+03 7.04823478e+03 4.10617188e+01
v 6.87450001e+03 7.02575875e+03 3.80770233e+01
v 6.87450001e+03 7.02563986e+03 3.50440985e+01
v 6.87450001e+03 7.02578593e+03 3.87409019e+01
v 6.87450001e+03 7.02579539e+03 3.39019092e+01
v 6.87450001e+03 7.00473121e+03 3.90659466e+01
v 6.87450001e+03 7.00477744e+03 3.26867606e+01
v 6.87450001e+03 7.00479337e+03 3.40521565e+01
v 6.87450001e+03 7.01134361e+03 4.43588378e+01
v 6.87450001e+03 7.01463574e+03 4.55712767e+01
v 6.87450001e+03 7.01557643e+03 4.57668183e+01
v 6.87450001e+03 7.02036002e+03 4.38152180e+01
v 6.87450001e+03 7.02702926e+03 4.12984452e+01
v 6.87450001e+03 7.01726589e+03 4.51438252e+01
v 6.87450001e+03 7.01946709e+03 4.42145911e+01
v 6.87450001e+03 7.00334851e+03 4.13444110e+01
v 6.87450001e+03 7.04079277e+03 2.94488106e+01
v 6.87450001e+03 7.00439864e+03 3.95046948e+01
v 6.87450001e+03 7.00000000e+03 2.73185167e+01
v 6.87450001e+03 7.02593827e+03 2.96982094e+01
v 6.87450001e+03 7.04068740e+03 2.93451087e+01
v 6.87450001e+03 7.04077908e+03 2.93452502e+01
v 6.87450001e+03 7.04061264e+03 2.93458048e+01
v 6.87450001e+03 7.03775457e+03 2.95756916e+01
v 6.87450001e+03 7.04673584e+03 3.14883808e+01
v 6.87450001e+03 7.06255547e+03 3.52174543e+01
v 6.87450001e+03 7.04726000e+03 3.25120833e+01
v 6.87450001e+03 7.04715133e+03 4.10338349e+01
v 6.87450001e+03 7.02683610e+03 4.10321354e+01
v 6.93799999e+03 7.05879741e+03 3.10959764e+01
v 6.93799999e+03 7.05835121e+03 3.11147782e+01
v 6.93799999e+03 7.04726708e+03 2.67648859e+01
v 6.93799999e+03 7.04763528e+03 2.67533457e+01
v 6.93799999e+03 7.06202385e+03 3.03237779e+01
v 6.93799999e+03 7.05895456e+03 3.09573139e+01
v 6.93799999e+03 7.06101525e+03 3.02434826e+01
v 6.93799999e+03 7.05456306e+03 2.68070157e+01
v 6.93799999e+03 7.05507285e+03 2.71888359e+01
v 6.93799999e+03 7.05330737e+03 2.83509700e+01
v 6.93799999e+03 7.05129614e+03 3.03391308e+01
v 6.93799999e+03 7.04784328e+03 2.67390031e+01
v 6.93799999e+03 7.04125560e+03 2.66867353e+01
v 6.93799999e+03 7.01680271e+03 2.73657369e+01
v 6.93799999e+03 7.02617197e+03 2.71533949e+01
v 6.93799999e+03 7.05431584e+03 2.64628307e+01
v 6.93799999e+03 7.03552952e+03 2.68630129e+01
v 6.93799999e+03 7.03071254e+03 2.70807073e+01
v 6.93799999e+03 7.03278686e+03 2.70274006e+01
v 6.93799999e+03 7.01401748e+03 2.74931323e+01
v 6.93799999e+03 7.00034845e+03 2.79753678e+01
v 6.93799999e+03 7.00237253e+03 2.82581914e+01
v 6.93799999e+03 7.00864578e+03 2.75091944e+01
v 6.93799999e+03 7.00708798e+03 2.78074762e+01
v 6.93799999e+03 7.00540983e+03 2.75778210e+01
v 6.93799999e+03 7.05421206e+03 3.11862298e+01
v 6.93799999e+03 7.05342986e+03 3.09361115e+01
v 6.93799999e+03 7.00419462e+03 2.73343474e+01
v 6.93799999e+03 7.00324412e+03 2.73901860e+01
v 6.93799999e+03 7.01068518e+03 2.74913380e+01
v 6.93799999e+03 7.00000000e+03 2.77911420e+01
v 6.90842720e+03 7.06299999e+03 3.80798584e+01
v 6.90960858e+03 7.06299999e+03 3.73928539e+01
v 6.89515233e+03 7.06299999e+03 4.20360709e+01
v 6.89687116e+03 7.06299999e+03 4.17949096e+01
v 6.87589505e+03 7.06299999e+03 4.32762799e+01
v 6.87715943e+03 7.06299999e+03 4.33645391e+01
v 6.88444382e+03 7.06299999e+03 4.31072845e+01
v 6.88477143e+03 7.06299999e+03 4.26563302e+01
v 6.90223894e+03 7.06299999e+03 4.09421782e+01
v 6.89489242e+03 7.06299999e+03 4.20744777e+01
v 6.89496092e+03 7.06299999e+03 4.20675231e+01
v 6.88910719e+03 7.06299999e+03 4.31902442e+01
v 6.87993662e+03 7.06299999e+03 4.36286245e+01
v 6.88526920e+03 7.06299999e+03 4.30984703e+01
v 6.91065504e+03 7.06299999e+03 3.75548057e+01
v 6.91127859e+03 7.06299999e+03 3.76234302e+01
v 6.90233372e+03 7.06299999e+03 4.09636095e+01
v 6.90239886e+03 7.06299999e+03 4.08117240e+01
v 6.90464411e+03 7.06299999e+03 4.01062848e+01
v 6.90409145e+03 7.06299999e+03 4.03706863e+01
v 6.90238177e+03 7.06299999e+03 4.09914356e+01
v 6.87515432e+03 7.06299999e+03 4.17492146e+01
v 6.87464271e+03 7.06299999e+03 3.48614160e+01
v 6.91378259e+03 7.06299999e+03 2.75555675e+01
v 6.91040177e+03 7.06299999e+03 2.82884617e+01
v 6.91095948e+03 7.06299999e+03 3.43768682e+01
v 6.91779173e+03 7.06299999e+03 2.68597953e+01
v 6.91752199e+03 7.06299999e+03 2.74869984e+01
v 6.92606042e+03 7.06299999e+03 2.65526943e+01
v 6.92500870e+03 7.06299999e+03 2.65789538e+01
v 6.93775993e+03 7.06299999e+03 3.02718131e+01
v 6.93702071e+03 7.06299999e+03 3.02335225e+01
v 6.93208952e+03 7.06299999e+03 3.01853744e+01
v 6.93247674e+03 7.06299999e+03 3.01410298e+01
v 6.93248868e+03 7.06299999e+03 3.00982023e+01
v 6.93250807e+03 7.06299999e+03 3.02139586e+01
v 6.93699677e+03 7.06299999e+03 2.98722516e+01
v 6.93563612e+03 7.06299999e+03 2.84489371e+01
v 6.93087483e+03 7.06299999e+03 2.98964115e+01
v 6.93032399e+03 7.06299999e+03 3.02017168e+01
v 6.93035305e+03 7.06299999e+03 3.02667950e+01
v 6.93026444e+03 7.06299999e+03 3.02779608e+01
v 6.93233250e+03 7.06299999e+03 2.88553128e+01
v 6.93246154e+03 7.06299999e+03 2.87844500e+01
v 6.93084301e+03 7.06299999e+03 3.02009470e+01
v 6.93063128e+03 7.06299999e+03 3.02885095e+01
v 6.91462215e+03 7.06299999e+03 2.71256191e+01
v 6.91555110e+03 7.06299999e+03 2.68677883e+01
v 6.92024974e+03 7.06299999e+03 2.69362370e+01
v 6.92083544e+03 7.06299999e+03 2.66840911e+01
v 6.92213038e+03 7.06299999e+03 2.66905688e+01
v 6.92367607e+03 7.06299999e+03 2.67042948e+01
v 6.91855988e+03 7.06299999e+03 2.68429486e+01
v 6.91677589e+03 7.06299999e+03 2.70838196e+01
v 6.91816196e+03 7.06299999e+03 2.67549988e+01
v 6.92733913e+03 7.06299999e+03 2.65445386e+01
v 6.93015197e+03 7.06299999e+03 2.65332596e+01
v 6.93085752e+03 7.06299999e+03 2.65232753e+01
v 6.93141911e+03 7.06299999e+03 2.66663365e+01
v 6.93404452e+03 7.06299999e+03 2.80110033e+01
v 6.93459557e+03 7.06299999e+03 2.73175907e+01
v 6.93489938e+03 7.06299999e+03 2.74465312e+01
v 6.93163694e+03 7.06299999e+03 2.67683035e+01
v 6.91677162e+03 7.06299999e+03 2.70751104e+01
v 6.87517808e+03 7.06299999e+03 4.30045851e+01
v 6.87587690e+03 7.06299999e+03 3.81640417e+01
v 6.87592043e+03 7.06299999e+03 3.79480593e+01
v 6.87466658e+03 7.06299999e+03 3.49190711e+01
v 6.87450001e+03 7.06299999e+03 3.47769220e+01
v 6.93799999e+03 7.06299999e+03 3.02807350e+01
v 6.93707104e+03 7.06299999e+03 3.02525774e+01
vt 0.059591074 0.76795459
vt 0.088659406 0.74464673
vt 0.068429187 0.77493453
vt 0.072318397 0.83300751
vt 0.066032648 0.75644881
vt 0.10933328 0.73539972
vt 0.090455107 0.80913293
vt 0.017765475 0.83933663
vt 0.079214543 0.72957647
vt 0.053897265 0.74412715
vt 0.14119042 0.76005197
vt 0.099396132 0.7271173
vt 0.0050331894 0.82227409
vt 0.039266407 0.71560693
vt 0.15574057 0.70397413
vt 0.11255301 0.71851569
vt 0.006536027 0.79924196
vt 0.11291356 0.70273215
vt 0.19427776 0.72847754
vt 0.13192363 0.71388686
vt 0.1197973 0.72125447
vt 0.0044230619 0.8025924
vt 0.07863085 0.68523955
vt 0.004423324 0.79696989
vt 0.20411637 0.71184987
vt 0.0044309027 0.82154179
vt 0.0044232989 0.79962456
vt 0.050672799 0.69270372
vt 0.10947265 0.66335946
vt 0.0044075018 0.74194491
vt 0.0044237264 0.79836214
vt 0.22774163 0.71371615
vt 0.19324483 0.67569816
vt 0.043133769 0.67839378
vt 0.027051121 0.69365907
vt 0.14423379 0.67635733
vt 0.083935186 0.67114377
vt 0.0044019986 0.73240411
vt 0.13855305 0.70225227
vt 0.065364391 0.66167128
vt 0.14042467 0.6387108
vt 0.14529113 0.68878269
vt 0.086838342 0.64672184
vt 0.24847908 0.69693863
vt 0.0043984246 0.72292858
vt 0.12653725 0.64239216
vt 0.16951552 0.65564775
vt 0.24884689 0.67981631
vt 0.28380689 0.70076036
vt 0.004392751 0.70730877
vt 0.12840313 0.61569476
vt 0.18521835 0.63316453
vt 0.17174746 0.67671883
vt 0.10909965 0.62980366
vt 0.2111339 0.66074336
vt 0.26220968 0.67108655
vt 0.0043917866 0.70647842
vt 0.15950194 0.59205806
vt 0.18871173 0.57961249
vt 0.18254085 0.64956725
vt 0.18892752 0.66577291
vt 0.22583307 0.652349
vt 0.30234435 0.69984865
vt 0.19826072 0.59365499
vt 0.18580057 0.67920899
vt 0.21799284 0.64870638
vt 0.27233142 0.65993905
vt 0.18565266 0.57300675
vt 0.22133124 0.61981869
vt 0.20029189 0.66615838
vt 0.3219434 0.68560976
vt 0.22996116 0.60598528
vt 0.20948641 0.63597441
vt 0.32412717 0.70435256
vt 0.29338124 0.64598495
vt 0.22743951 0.56910849
vt 0.25316122 0.61331272
vt 0.22189088 0.6427229
vt 0.18489051 0.65201128
vt 0.35182279 0.72747123
vt 0.29751673 0.63564122
vt 0.26697969 0.60303468
vt 0.23196237 0.63527066
vt 0.20419611 0.65264249
vt 0.33171833 0.71449757
vt 0.34900859 0.70104122
vt 0.31669724 0.65670615
vt 0.21419135 0.554582
vt 0.25473529 0.62698543
vt 0.18962561 0.6632483
vt 0.33684668 0.72611821
vt 0.37427843 0.73518062
vt 0.27893516 0.53787255
vt 0.25259927 0.63496721
vt 0.35875136 0.75093114
vt 0.32667115 0.7270838
vt 0.37947053 0.76450199
vt 0.21596807 0.54126239
vt 0.29768911 0.56849039
vt 0.27533874 0.61751783
vt 0.38995069 0.77117819
vt 0.19762303 0.50460994
vt 0.30354294 0.57206309
vt 0.31309408 0.59036928
vt 0.36554375 0.76149017
vt 0.39943227 0.76851219
vt 0.4009631 0.79223907
vt 0.20482762 0.52627373
vt 0.25950679 0.50458932
vt 0.31630734 0.55205679
vt 0.388457 0.79080486
vt 0.34742844 0.76315558
vt 0.40581331 0.79210162
vt 0.19693673 0.5264591
vt 0.31207526 0.50457263
vt 0.36410818 0.7723645
vt 0.3379617 0.75760424
vt 0.43702498 0.81969154
vt 0.41531304 0.81340039
vt 0.40728438 0.81420076
vt 0.3487334 0.62114662
vt 0.39358988 0.58724046
vt 0.34831062 0.74738407
vt 0.44606039 0.8538034
vt 0.31438762 0.63198715
vt 0.40971303 0.50454015
vt 0.32655674 0.75121444
vt 0.3497434 0.74188465
vt 0.47888854 0.87628251
vt 0.40603381 0.65001178
vt 0.45423484 0.54632831
vt 0.4886089 0.91164541
vt 0.37358889 0.9111957
vt 0.4742626 0.61946321
vt 0.3630591 0.65446389
vt 0.45856729 0.50452363
vt 0.33420458 0.74087447
vt 0.50055075 0.90525573
vt 0.45591646 0.92046189
vt 0.42030624 0.92989963
vt 0.39046404 0.85027552
vt 0.47111028 0.75130653
vt 0.38875869 0.6814754
vt 0.33913893 0.65886444
vt 0.48961836 0.53023875
vt 0.50045753 0.57205594
vt 0.32784978 0.73642129
vt 0.33411604 0.73498034
vt 0.50055301 0.92192376
vt 0.47820273 0.93182844
vt 0.40207657 0.94749337
vt 0.37684035 0.89513403
vt 0.50047886 0.63578284
vt 0.42378789 0.73040116
vt 0.3613064 0.66729623
vt 0.31902322 0.64242506
vt 0.34402505 0.66577327
vt 0.49843022 0.5045104
vt 0.50045204 0.55988467
vt 0.50046277 0.58798897
vt 0.50055373 0.92803401
vt 0.49817213 0.96082169
vt 0.46554425 0.93065345
vt 0.44828647 0.93321145
vt 0.42681623 0.94330072
vt 0.50050366 0.70898139
vt 0.50047117 0.61402273
vt 0.45262954 0.78319275
vt 0.39300767 0.70740354
vt 0.37410438 0.68854415
vt 0.35615173 0.66708446
vt 0.5004341 0.50723124
vt 0.50044894 0.54677474
vt 0.50056458 0.96037155
vt 0.47736874 0.95935714
vt 0.47107169 0.94469005
vt 0.41454396 0.96028751
vt 0.50051558 0.74445498
vt 0.42756641 0.75240874
vt 0.45625225 0.8179785
vt 0.41143683 0.72942221
vt 0.35310009 0.6771332
vt 0.50043774 0.52304363
vt 0.50043416 0.50450951
vt 0.50044715 0.53728157
vt 0.47483438 0.96955764
vt 0.50056577 0.96385765
vt 0.44825071 0.94541329
vt 0.42767632 0.96308446
vt 0.50052106 0.76066095
vt 0.44201848 0.78708339
vt 0.50054431 0.82682437
vt 0.39725024 0.73170149
vt 0.36200646 0.69831449
vt 0.35460427 0.70442283
vt 0.34457022 0.67813236
vt 0.50044441 0.52985561
vt 0.46141243 0.96339697
vt 0.48135221 0.98016566
vt 0.45871595 0.98105478
vt 0.50056696 0.96508574
vt 0.45445451 0.95626086
vt 0.43146372 0.97124749
vt 0.50052893 0.78208858
vt 0.42291725 0.78449929
vt 0.50055909 0.87378919
vt 0.43334332 0.80926013
vt 0.4880535 0.98086149
vt 0.46333092 0.98731953
vt 0.43583339 0.97949052
vt 0.37977377 0.73752809
vt 0.49268502 0.99564683
vt 0.45749855 0.99630994
vt 0.44466674 0.99671131
vt 0.50057584 0.98118711
vt 0.44083855 0.99671239
vt 0.4067786 0.77451944
vt 0.47530648 0.99187762
vt 0.50057799 0.98906666
vt 0.45440525 0.99670821
vt 0.44301215 0.99671161
vt 0.44014624 0.99671257
vt 0.49870518 0.99669361
vt 0.45743066 0.99670738
vt 0.50058067 0.99669296
vt 0.49332327 0.9966954
vt 0.49293017 0.99669558
vt 0.68809408 0.59036928
vt 0.68938762 0.63198715
vt 0.66699409 0.6470747
vt 0.64378589 0.62457657
vt 0.62777573 0.67793971
vt 0.65203738 0.66052532
vt 0.60839802 0.66056514
vt 0.66839153 0.66201103
vt 0.61297482 0.68183184
vt 0.6811713 0.65091968
vt 0.65885639 0.66805065
vt 0.60208315 0.66629624
vt 0.69247496 0.67372787
vt 0.6908403 0.68349838
vt 0.71413893 0.65886444
vt 0.70664579 0.69658935
vt 0.69402319 0.64242506
vt 0.71957022 0.67813236
vt 0.70706552 0.70623541
vt 0.7296043 0.70442283
vt 0.71626312 0.71578085
vt 0.73503846 0.73680615
vt 0.72594655 0.73490465
vt 0.7547738 0.73752809
vt 0.747334 0.76414496
vt 0.75667989 0.76459497
vt 0.78177863 0.77451944
vt 0.76715875 0.78806865
vt 0.77463752 0.78257704
vt 0.79791725 0.78449929
vt 0.78494716 0.81168997
vt 0.80834335 0.80926013
vt 0.83125222 0.8179785
vt 0.8205182 0.85822099
vt 0.83612239 0.87706089
vt 0.79501587 0.83011699
vt 0.87555909 0.87378919
vt 0.8755601 0.87666577
vt 0.85265321 0.89496231
vt 0.8755607 0.87829083
vt 0.83603346 0.88876504
vt 0.85537899 0.9030475
vt 0.072016358 0.33355927
vt 0.076990806 0.33838379
vt 0.03574308 0.34703505
vt 0.033057492 0.33930528
vt 0.10542413 0.29836726
vt 0.064351894 0.37738186
vt 0.0054184333 0.37113273
vt 0.10542489 0.36333662
vt 0.0043906774 0.38676828
vt 0.0043907585 0.38618106
vt 0.14777002 0.31046808
vt 0.08606977 0.42408371
vt 0.0043906276 0.38764983
vt 0.0043893037 0.38146746
vt 0.21369316 0.26555592
vt 0.13253 0.36037451
vt 0.03249852 0.42934519
vt 0.0043867091 0.37300307
vt 0.17930344 0.31126034
vt 0.16310059 0.25012898
vt 0.17465176 0.32407194
vt 0.040741701 0.47574013
vt 0.21599984 0.38051808
vt 0.0043921648 0.4293704
vt 0.22251809 0.29304826
vt 0.16847524 0.31212199
vt 0.14379764 0.24890745
vt 0.21962285 0.22536486
vt 0.017856685 0.49500275
vt 0.080422312 0.47811502
vt 0.23487785 0.49250752
vt 0.0044045569 0.45091367
vt 0.28599593 0.27112299
vt 0.10719948 0.27862597
vt 0.28339961 0.21352917
vt 0.19566356 0.22824603
vt 0.0044148918 0.47352386
vt 0.051973555 0.48957819
vt 0.16071281 0.48224866
vt 0.29835588 0.45738459
vt 0.3211427 0.3103295
vt 0.28082418 0.24984974
vt 0.27179587 0.20236093
vt 0.23093674 0.21226537
vt 0.0044152644 0.48075056
vt 0.025191464 0.49680823
vt 0.085420541 0.49639612
vt 0.26950079 0.49674469
vt 0.16576928 0.49676657
vt 0.34941494 0.30117029
vt 0.31825706 0.21760672
vt 0.30721083 0.20109475
vt 0.0044164276 0.48815835
vt 0.04688704 0.49680042
vt 0.015313887 0.49681169
vt 0.12275781 0.49013126
vt 0.082102649 0.49679053
vt 0.33378041 0.42240733
vt 0.23993455 0.49674827
vt 0.31037039 0.47303271
vt 0.16427372 0.49676698
vt 0.22203091 0.49649155
vt 0.3187643 0.25361562
vt 0.36284247 0.33122706
vt 0.16373849 0.49676716
vt 0.11853511 0.49677849
vt 0.23561552 0.49674886
vt 0.278734 0.49674374
vt 0.17919898 0.49676293
vt 0.37169912 0.28655165
vt 0.36796987 0.31287336
vt 0.32585302 0.24925792
vt 0.33340773 0.20988792
vt 0.0097139496 0.49681431
vt 0.088551022 0.49678844
vt 0.36878094 0.39715832
vt 0.35274917 0.44167203
vt 0.28690872 0.49674064
vt 0.22225527 0.49675137
vt 0.36720908 0.27394897
vt 0.39491218 0.31230438
vt 0.32684055 0.22305626
vt 0.38273644 0.35286522
vt 0.36710805 0.43897301
vt 0.3211818 0.47550917
vt 0.39800158 0.30074489
vt 0.37978366 0.38406628
vt 0.36498138 0.43022364
vt 0.29177988 0.49673885
vt 0.39777419 0.32656354
vt 0.4076426 0.31534731
vt 0.57360983 0.92582989
vt 0.57698405 0.92343581
vt 0.59143716 0.93593532
vt 0.56649995 0.92979211
vt 0.5895617 0.90744907
vt 0.61730105 0.91228336
vt 0.57684672 0.91737986
vt 0.6420545 0.94643569
vt 0.59119534 0.89991009
vt 0.64317977 0.91894203
vt 0.65459722 0.91622883
vt 0.63369918 0.91284883
vt 0.66083604 0.93244797
vt 0.67544478 0.92282605
vt 0.68112153 0.95482045
vt 0.71937597 0.96319586
vt 0.70884627 0.92937416
vt 0.73671377 0.93329346
vt 0.75395358 0.94237959
vt 0.7638151 0.93713671
vt 0.77787536 0.97554255
vt 0.78407413 0.94379216
vt 0.8173241 0.95018828
vt 0.8426289 0.98944551
vt 0.83907396 0.96586829
vt 0.83926791 0.95527971
vt 0.85063267 0.95690709
vt 0.86901045 0.96576858
vt 0.89112848 0.98106557
vt 0.87583429 0.99636692
vt 0.90455157 0.97159797
vt 0.61803418 0.45610529
vt 0.63972169 0.48800707
vt 0.58009994 0.48844385
vt 0.57916832 0.4576084
vt 0.64177525 0.46159375
vt 0.59470385 0.51907992
vt 0.55850923 0.47338986
vt 0.6695953 0.46491629
vt 0.64251226 0.51649582
vt 0.54555333 0.49470258
vt 0.54704845 0.45654833
vt 0.6747511 0.49405086
vt 0.63491344 0.54009724
vt 0.54790825 0.52104604
vt 0.52817577 0.46032101
vt 0.69549733 0.46552896
vt 0.68299693 0.52064133
vt 0.59886909 0.54126894
vt 0.51166523 0.49816799
vt 0.70585054 0.4959597
vt 0.60024518 0.55810505
vt 0.67976725 0.54045677
vt 0.53736228 0.54241568
vt 0.51123285 0.54125881
vt 0.51186496 0.46473217
vt 0.72316158 0.46770942
vt 0.74168593 0.51534128
vt 0.7196297 0.54134345
vt 0.51360857 0.44967639
vt 0.73165244 0.48690444
vt 0.70446652 0.5572592
vt 0.50374568 0.55898702
vt 0.524863 0.45119423
vt 0.77031851 0.47045869
vt 0.77027625 0.53117675
vt 0.75631166 0.49840939
vt 0.77704638 0.55677056
vt 0.77065164 0.46691906
vt 0.77067125 0.47836119
vt 0.77042216 0.53636205
vt 0.76963776 0.5074895
vt 0.77601749 0.55462134
vt 0.74533457 0.46309197
vt 0.77046382 0.49864501
vt 0.62228185 0.19430643
vt 0.62690461 0.16083008
vt 0.67075896 0.20060825
vt 0.64881992 0.26776153
vt 0.59583902 0.20311981
vt 0.6903435 0.16081882
vt 0.56372106 0.32931441
vt 0.72678906 0.20988411
vt 0.5400641 0.16086739
vt 0.60862058 0.21297568
vt 0.53182095 0.25923359
vt 0.58631986 0.22096401
vt 0.5042786 0.24949265
vt 0.50427425 0.18703955
vt 0.50428051 0.27520901
vt 0.50428188 0.28255761
vt 0.50428945 0.29575855
vt 0.50429988 0.31295842
vt 0.50430423 0.31993568
vt 0.50433439 0.37204719
vt 0.095419809 0.92684102
vt 0.059513364 0.92893046
vt 0.058119141 0.84266347
vt 0.092167199 0.84013844
vt 0.013701244 0.89504319
vt 0.14872217 0.83936822
vt 0.0037662624 0.84585392
vt 0.025112949 0.92217064
vt 0.13665503 0.92561507
vt 0.026069643 0.932495
vt 0.013306444 0.90851337
vt 0.17440851 0.8885299
vt 0.0068340837 0.93324476
vt 0.17209204 0.92272907
vt 0.16728149 0.84796631
vt 0.19790113 0.92792284
vt 0.18885846 0.84321916
vt 0.1982653 0.88857836
vt 0.19602174 0.85073149
vt 0.69416761 0.83173567
vt 0.69812536 0.84641898
vt 0.64610064 0.84608233
vt 0.63106835 0.83368206
vt 0.69108701 0.87082231
vt 0.64405155 0.87103653
vt 0.68158209 0.78006876
vt 0.62929469 0.87079197
vt 0.61100399 0.77973056
vt 0.58086205 0.87125164
vt 0.593907 0.78966004
vt 0.58145916 0.78198433
vt 0.58135164 0.80852878
vt 0.55510223 0.81858581
vt 0.55556267 0.78243726
vt 0.54844201 0.87057233
vt 0.53723276 0.77901316
vt 0.53651738 0.79475415
vt 0.51004297 0.79640603
vt 0.51928473 0.7818535
vt 0.50652349 0.87090975
vt 0.50393057 0.80455458
vt 0.50929952 0.79012573
vt 0.50449365 0.87094164
vt 0.50391072 0.79952008
vt 0.51192963 0.78142202
vt 0.50672311 0.79637563
vt 0.50438398 0.79597008
vt 0.71427059 0.96204984
vt 0.70536089 0.97668952
vt 0.68125319 0.95825613
vt 0.72825694 0.9699946
vt 0.660914 0.97926342
vt 0.71315646 0.99185008
vt 0.65842986 0.96816427
vt 0.66657257 0.99254954
vt 0.73090994 0.99100643
vt 0.66990077 0.99569845
vt 0.64614236 0.9806385
vt 0.65954709 0.96186775
vt 0.65776384 0.9824965
vt 0.75346094 0.97029054
vt 0.67026085 0.99635786
vt 0.6570999 0.99179035
vt 0.64843345 0.97308415
vt 0.65698415 0.98176372
vt 0.77595574 0.98838711
vt 0.64408845 0.96746886
vt 0.64225459 0.96792543
vt 0.63781148 0.97412074
vt 0.62960315 0.9824053
vt 0.63031542 0.98492992
vt 0.62946075 0.98503143
vt 0.36306202 0.83719236
vt 0.3515715 0.84721977
vt 0.36118692 0.82829553
vt 0.36292964 0.83132541
vt 0.34033829 0.83264613
vt 0.35879692 0.82647526
vt 0.33658338 0.8417986
vt 0.35622877 0.82513922
vt 0.3279784 0.84764099
vt 0.32140854 0.83562028
vt 0.31481132 0.82513255
vt 0.33189365 0.85852879
vt 0.31580335 0.84365708
vt 0.34532157 0.81859875
vt 0.36969462 0.86371195
vt 0.32000449 0.85585809
vt 0.31061965 0.81815213
vt 0.36332074 0.84400326
vt 0.33561093 0.86577386
vt 0.28838173 0.83210748
vt 0.34154037 0.81545192
vt 0.38706633 0.84664905
vt 0.34570238 0.86765617
vt 0.32330146 0.87198168
vt 0.29523256 0.85454655
vt 0.33318201 0.8102389
vt 0.38164613 0.84192646
vt 0.30745822 0.8628847
vt 0.2748026 0.82043475
vt 0.3232052 0.80403495
vt 0.37564939 0.83737504
vt 0.30781469 0.79393053
vt 0.31460324 0.79826188
vt 0.36777195 0.83308393
vt 0.25458309 0.79425567
vt 0.29956099 0.78873777
vt 0.27343798 0.77525711
vt 0.28140512 0.7773357
vt 0.25966555 0.77201581
vt 0.27685106 0.77445358
vt 0.94021249 0.73103803
vt 0.89224082 0.7950871
vt 0.90354633 0.72964823
vt 0.91953695 0.72811812
vt 0.94042104 0.78536129
vt 0.85703284 0.73221195
vt 0.94754136 0.78635943
vt 0.83240169 0.80569243
vt 0.94612873 0.72993183
vt 0.81723458 0.73337924
vt 0.8181352 0.80911261
vt 0.82388318 0.60218698
vt 0.7997396 0.59237862
vt 0.80867028 0.59515989
vt 0.78925258 0.59516037
vt 0.78850532 0.6458962
vt 0.82659489 0.68149805
vt 0.76373315 0.64429379
vt 0.85065317 0.60173082
vt 0.78717923 0.67782736
vt 0.76726842 0.599747
vt 0.86362243 0.68403161
vt 0.75783664 0.60203499
vt 0.77627426 0.58526421
vt 0.76366043 0.67924857
vt 0.87969476 0.60822493
vt 0.755889 0.64128804
vt 0.7543174 0.68132901
vt 0.88088769 0.68382043
vt 0.97929168 0.97458428
vt 0.98795378 0.97563654
vt 0.97390419 0.98721665
vt 0.96567374 0.96797013
vt 0.99130481 0.98742229
vt 0.9587447 0.97382617
vt 0.98869079 0.99539775
vt 0.94840932 0.95945686
vt 0.96575975 0.9582544
vt 0.94137567 0.94405121
vt 0.96626109 0.95098245
vt 0.92626417 0.92859572
vt 0.97932512 0.94702226
vt 0.9174509 0.93140996
vt 0.97184443 0.94181812
vt 0.87945086 0.90841454
vt 0.53632241 0.88759422
vt 0.56525683 0.88575613
vt 0.552091 0.90835029
vt 0.52676934 0.9128629
vt 0.56617159 0.92056489
vt 0.52825904 0.94721425
vt 0.50993836 0.88855749
vt 0.56597787 0.9405123
vt 0.5035497 0.92845774
vt 0.50367194 0.90582919
vt 0.50346249 0.93910724
vt 0.54721141 0.9805069
vt 0.50371569 0.88849109
vt 0.50347549 0.95193636
vt 0.56548047 0.97803313
vt 0.51883489 0.97948903
vt 0.51041687 0.96258891
vt 0.55516851 0.99585497
vt 0.50356895 0.96741807
vt 0.50378448 0.97816688
vt 0.50555432 0.98146069
vt 0.51114208 0.99540281
vt 0.51930243 0.63576567
vt 0.53369528 0.63679314
vt 0.50651586 0.65900689
vt 0.53920555 0.65740347
vt 0.53934199 0.63733923
vt 0.50565314 0.68110108
vt 0.51864523 0.72270656
vt 0.5630765 0.68524504
vt 0.5054571 0.71219593
vt 0.56067777 0.65196466
vt 0.56378883 0.72831607
vt 0.50473446 0.72676617
vt 0.51394862 0.74664629
vt 0.57406139 0.74584734
vt 0.87865841 0.81814235
vt 0.87815183 0.79830158
vt 0.89315432 0.80397689
vt 0.91608125 0.80728596
vt 0.93788171 0.87077123
vt 0.94020426 0.8033067
vt 0.87920171 0.87109977
vt 0.97407824 0.87147903
vt 0.9759993 0.84804362
vt 0.97935587 0.80402803
vt 0.95892727 0.79312122
vt 0.22253038 0.96465236
vt 0.23128484 0.9598015
vt 0.25741255 0.96120054
vt 0.22808295 0.94732654
vt 0.25247893 0.944978
vt 0.26032516 0.95025355
vt 0.24037392 0.93537253
vt 0.27277398 0.93550897
vt 0.22629669 0.93289471
vt 0.27484897 0.93904424
vt 0.24589153 0.93181729
vt 0.23749931 0.9283399
vt 0.30620414 0.9335562
vt 0.34894967 0.94905037
vt 0.33817065 0.92324239
vt 0.35279718 0.92432046
vt 0.36193836 0.95243078
vt 0.3266432 0.92832309
vt 0.37757677 0.94818425
vt 0.32839885 0.94606197
vt 0.37631461 0.93127716
vt 0.37158838 0.96490252
vt 0.32481492 0.9549306
vt 0.38344029 0.93506837
vt 0.31683019 0.9470706
vt 0.2148688 0.92782599
vt 0.20857564 0.94129097
vt 0.20142318 0.93889844
vt 0.22526264 0.92907614
vt 0.17335509 0.96483374
vt 0.18722026 0.93717039
vt 0.15976018 0.93967575
vt 0.16176918 0.9552561
vt 0.31418219 0.92846817
vt 0.31309521 0.94022769
vt 0.30009273 0.94257849
vt 0.29984275 0.94091034
vt 0.30424264 0.97026926
vt 0.30698949 0.9168517
vt 0.3138909 0.97609413
vt 0.30712554 0.91639376
vt 0.30411425 0.98006386
vt 0.31031141 0.9192844
vt 0.30794045 0.91568428
vt 0.057180148 0.97125685
vt 0.058945227 0.97425628
vt 0.055664863 0.97865891
vt 0.051676571 0.98064828
vt 0.066492893 0.96108699
vt 0.037684385 0.97261894
vt 0.053869445 0.95868808
vt 0.039208163 0.96017504
vt 0.029981907 0.96842766
vt 0.0048744325 0.97214353
vt 0.79360354 0.89724767
vt 0.7906214 0.93060362
vt 0.78560036 0.93434298
vt 0.78559512 0.9139685
vt 0.81188881 0.91472542
vt 0.78558964 0.89724988
vt 0.83513939 0.89723432
vt 0.94891185 0.99144775
vt 0.90978205 0.97519797
vt 0.94782466 0.98891932
vt 0.91659093 0.98213714
vt 0.91930676 0.95140517
vt 0.95115554 0.99564874
vt 0.047318514 0.99641311
vt 0.0045348164 0.99098581
vt 0.0054145437 0.9902553
vt 0.0046747681 0.990426
vt 0.0041654892 0.98926723
vt 0.0042998563 0.99064249
vt 0.86254907 0.95062226
vt 0.88012832 0.95586872
vt 0.87345701 0.96401334
vt 0.85764295 0.95804042
vt 0.85611153 0.92970949
vt 0.8571102 0.94741422
vt 0.8888486 0.94620746
vt 0.84671456 0.94303799
vt 0.085981123 0.96328366
vt 0.079186618 0.97563243
vt 0.065693617 0.96820009
vt 0.089703225 0.97929627
vt 0.07854227 0.97882545
vt 0.098215632 0.97856933
vt 0.066524185 0.96944529
vt 0.10319114 0.98023957
vt 0.10494176 0.97335571
vt 0.62376964 0.99185997
vt 0.63073134 0.99555683
vt 0.6201309 0.99571538
vt 0.62799168 0.98761874
vt 0.64753133 0.99398196
vt 0.66007113 0.99593461
vt 0.1266959 0.98020673
vt 0.11450478 0.98129594
vt 0.11248472 0.96847767
vt 0.12988597 0.96767753
vt 0.14376897 0.96462667
vt 0.21748914 0.95871145
vt 0.2120184 0.95897275
vt 0.20993139 0.94842029
vt 0.21160994 0.98086709
vt 0.19097464 0.9789331
vt 0.21728067 0.97735816
vt 0.28241405 0.9706713
vt 0.29383016 0.97252899
vt 0.27237731 0.97990859
vt 0.26924673 0.96234214
vt 0.28705388 0.95756608
vt 0.29906073 0.96269226
vt 0.79759866 0.99503827
vt 0.78443611 0.99702728
vt 0.76950377 0.99600518
vt 0.78044415 0.98313791
vt 0.90900284 0.98535877
vt 0.90358227 0.99611247
vt 0.89457798 0.98445821
vt 0.92136407 0.98283309
vt 0.89427871 0.9945401
vt 0.01179304 0.99662656
vt 0.020758664 0.99669093
vt 0.032164261 0.99686956
vt 0.0044710608 0.9965148
vt 0.030685188 0.9965148
vt 0.02336321 0.99662656
vt 0.0029919909 0.99686956
vt 0.014397585 0.99669093
vt 0.060889803 0.99602944
vt 0.045378186 0.99536663
vt 0.035798471 0.98721755
vt 0.15331639 0.98133034
vt 0.14522229 0.96843576
vt 0.16193883 0.96752787
vt 0.16921782 0.97297996
vt 0.37795037 0.95487982
vt 0.38845691 0.96764827
vt 0.38256821 0.97667974
vt 0.39878014 0.97026539
vt 0.39299127 0.97982126
vt 0.80447155 0.98749512
vt 0.80798459 0.99386108
vt 0.79647529 0.99542123
vt 0.78427911 0.97813421
vt 0.94425738 0.97796148
vt 0.95830756 0.97860229
vt 0.96076924 0.98421329
vt 0.96463752 0.99427527
vt 0.96297872 0.9952237
vt 0.94634843 0.98212922
vt 0.94484371 0.98100483
vt 0.94096404 0.9787969
vt 0.80822402 0.98965156
vt 0.82040662 0.98550725
vt 0.82260865 0.99666476
vt 0.83292705 0.99036449
vt 0.57641411 0.97832143
vt 0.58774883 0.96838099
vt 0.58777362 0.97973043
vt 0.56579912 0.9674738
vt 0.1835895 0.95901394
vt 0.19709066 0.9660151
vt 0.18414098 0.96763945
vt 0.17513403 0.97489542
vt 0.18676563 0.98065406
vt 0.93119878 0.99357438
vt 0.91400081 0.99703383
vt 0.92486781 0.986121
vt 0.91147292 0.98787099
vt 0.91148061 0.98779583
vt 0.91012526 0.99340641
vt 0.34808049 0.96982986
vt 0.36830434 0.96695995
vt 0.35602039 0.98022133
vt 0.60481077 0.95851535
vt 0.60316777 0.97020084
vt 0.59796262 0.96793121
vt 0.61089706 0.97428423
vt 0.60370618 0.98143166
vt 0.22324561 0.97105914
vt 0.24305284 0.96885097
vt 0.23475163 0.98002881
vt 0.019704303 0.9813391
vt 0.024764534 0.97207469
vt 0.029798938 0.98813486
vt 0.25886637 0.9804408
vt 0.25679067 0.96760494
vt 0.2673775 0.97288638
vt 0.25406489 0.97712255
vt 0.23872347 0.97975701
vt 0.24155746 0.97102225
vt 0.25216919 0.96733558
vt 0.018086817 0.99570447
vt 0.012502783 0.98431784
vt 0.01804845 0.9856829
vt 0.017692551 0.99618673
vt 0.018117478 0.99656188
vt 0.018067466 0.99605048
vt 0.31558183 0.96872199
vt 0.32901198 0.97296441
vt 0.32406944 0.98079526
vt 0.02694138 0.99146789
vt 0.03444314 0.987728
vt 0.037002344 0.99700367
vt 0.0095643001 0.99583471
vt 0.0062656519 0.99573469
vt 0.0070046629 0.99240369
vt 0.0031215728 0.99582464
vt 0.013207118 0.99594462
vt 0.010822362 0.99651974
vt 0.011210182 0.98935211
vt 0.020060949 0.99283242
vt 0.023203846 0.99133551
vt 0.020062448 0.99626529
vt 0.0055206995 0.99522167
vt 0.0060493327 0.99549693
vt 0.0048999181 0.99549258
vt 0.004807198 0.99606228
vt 0.0040254924 0.99703318
vt 0.0031691142 0.99587721
vt 0.0038495404 0.99592102
vt 0.0036012016 0.99574196
usemtl Tile_+034_+029_L18_00010_0
f 282/392 287/393 264/394
f 223/1 224/2 249/3
f 191/851 192/852 312/853
f 194/81 209/75 199/67
f 199/660 197/661 194/662
f 202/597 274/598 268/599
f 229/19 231/15 218/25
f 215/32 218/25 214/33
f 231/15 214/33 218/25
f 226/11 231/15 229/19
f 244/475 321/476 320/477
f 245/14 246/35 257/28
f 256/23 255/18 248/9
f 319/270 346/271 342/272
f 207/73 268/84 267/79
f 268/84 207/73 206/78
f 204/767 276/768 263/769
f 203/98 19/102 20/93
f 191/733 285/734 281/735
f 206/78 207/73 279/69
f 274/685 214/686 222/687
f 231/689 296/691 305/690
f 201/600 206/602 304/604
f 267/756 266/757 273/758
f 251/37 252/43 295/29
f 221/39 219/20 255/18
f 255/18 296/36 220/42
f 213/48 205/56 211/44
f 194/81 33/71 209/75
f 194/662 197/661 195/664
f 18/115 103/110 20/93
f 156/240 35/241 315/235
f 292/64 279/69 272/52
f 313/230 299/232 310/231
f 213/673 300/674 299/675
f 301/239 318/234 300/236
f 310/231 299/232 318/234
f 302/606 310/608 317/607
f 299/232 313/230 298/233
f 285/734 191/733 294/737
f 19/102 284/108 316/114
f 21/714 261/715 412/716
f 23/720 283/718 21/714
f 276/416 312/420 277/406
f 313/230 315/235 298/233
f 310/608 318/611 317/607
f 231/689 305/690 222/687
f 314/238 298/233 315/235
f 246/35 245/14 414/38
f 293/82 291/72 294/76
f 281/735 277/736 191/733
f 294/76 312/88 293/82
f 20/93 293/82 312/88
f 293/82 158/104 309/100
f 20/93 311/99 293/82
f 310/608 302/606 309/610
f 313/230 310/231 158/228
f 310/608 309/610 158/612
f 20/93 17/109 18/115
f 134/103 20/93 103/110
f 134/103 311/99 20/93
f 105/361 196/362 34/363
f 107/704 195/705 196/706
f 105/665 195/664 104/667
f 203/771 312/772 276/768
f 134/103 158/104 311/99
f 313/670 104/667 195/664
f 272/52 297/41 286/59
f 280/58 297/41 282/51
f 280/58 286/59 297/41
f 307/47 303/60 273/61
f 272/52 303/60 307/47
f 304/83 206/78 279/69
f 293/82 309/100 302/94
f 308/89 293/82 302/94
f 308/89 306/77 293/82
f 292/739 285/734 294/737
f 279/69 291/72 306/77
f 306/77 308/89 304/83
f 292/64 291/72 279/69
f 277/406 265/398 278/401
f 293/82 306/77 291/72
f 304/83 279/69 306/77
f 304/83 308/89 302/94
f 297/41 272/52 307/47
f 273/61 305/53 307/47
f 201/600 304/604 212/605
f 273/61 274/70 222/65
f 303/759 267/756 273/758
f 220/692 296/691 231/689
f 214/686 231/689 222/687
f 317/607 301/609 212/605
f 305/53 273/61 222/65
f 304/604 302/606 212/605
f 213/673 212/679 301/677
f 307/47 305/53 296/36
f 297/41 307/47 296/36
f 255/18 219/20 217/21
f 245/14 235/17 416/24
f 230/6 226/11 249/3
f 249/3 224/2 230/6
f 220/42 221/39 255/18
f 255/18 256/23 295/29
f 216/16 225/12 255/18
f 290/46 297/41 295/29
f 297/41 290/46 282/51
f 251/37 295/29 256/23
f 245/14 256/23 248/9
f 295/29 296/36 255/18
f 295/29 297/41 296/36
f 283/718 261/715 21/714
f 283/613 23/614 259/615
f 19/635 316/636 9/637
f 263/769 284/770 204/767
f 291/72 292/64 294/76
f 203/98 284/108 19/102
f 312/88 203/98 20/93
f 312/420 192/424 277/406
f 286/59 292/64 272/52
f 204/767 284/770 203/771
f 312/740 294/737 191/733
f 285/793 292/794 286/795
f 280/395 265/398 281/402
f 281/68 286/59 280/58
f 286/795 281/796 285/793
f 259/615 258/616 283/613
f 252/43 288/54 290/46
f 287/393 288/396 252/399
f 290/46 295/29 252/43
f 289/456 184/457 229/458
f 274/598 273/601 268/599
f 264/394 280/395 282/392
f 288/396 287/393 282/392
f 264/394 265/398 280/395
f 267/756 303/759 272/760
f 268/599 273/601 266/603
f 268/599 206/602 201/600
f 201/600 202/597 268/599
f 9/637 263/638 10/640
f 252/399 253/407 260/403
f 420/430 271/421 421/425
f 421/425 254/417 422/429
f 254/417 271/421 262/411
f 262/411 253/407 254/417
f 250/5 223/1 247/10
f 251/37 256/23 253/40
f 253/40 252/43 251/37
f 256/23 254/34 253/40
f 248/9 224/2 250/5
f 245/14 247/10 223/1
f 254/34 257/28 246/35
f 256/23 245/14 257/28
f 257/28 254/34 256/23
f 217/21 216/16 255/18
f 241/4 223/1 249/3
f 236/13 235/17 223/1
f 240/489 241/486 243/487
f 241/486 240/489 232/491
f 223/1 241/4 232/8
f 232/741 234/742 236/743
f 236/13 223/1 232/8
f 232/491 233/492 237/494
f 237/494 238/493 423/497
f 425/22 236/13 426/26
f 233/492 240/489 242/488
f 232/491 240/489 233/492
f 227/483 239/485 241/486
f 227/7 249/3 226/11
f 224/2 223/1 250/5
f 248/9 225/12 224/2
f 215/459 289/456 229/458
f 230/6 217/21 219/20
f 219/20 231/15 230/6
f 202/688 214/686 274/685
f 219/773 221/774 220/775
f 231/776 219/773 220/775
f 225/12 248/9 255/18
f 229/19 218/25 215/32
f 208/63 199/67 33/71
f 210/461 289/456 215/459
f 199/67 209/75 33/71
f 215/32 211/44 210/49
f 211/44 215/32 214/33
f 213/48 211/44 214/33
f 214/33 202/55 213/48
f 208/63 210/49 205/56
f 199/67 208/63 205/56
f 40/365 315/369 35/366
f 210/49 211/44 205/56
f 201/684 212/679 200/682
f 276/768 204/767 203/771
f 276/416 277/406 275/410
f 202/55 201/66 200/62
f 194/662 195/664 105/665
f 322/464 289/456 210/461
f 34/363 194/364 105/361
f 34/87 33/71 194/81
f 187/302 409/284 188/311
f 12/647 324/641 193/645
f 277/736 192/738 191/733
f 502/317 339/329 503/337
f 190/292 406/281 356/285
f 370/294 187/302 364/310
f 369/298 360/291 361/307
f 332/316 367/299 365/308
f 357/275 368/286 427/282
f 356/285 408/290 190/292
f 351/436 13/437 347/438
f 350/797 353/798 352/799
f 328/412 335/414 336/409
f 350/440 13/437 351/436
f 350/822 349/823 348/824
f 349/777 352/778 351/779
f 340/320 188/311 326/304
f 342/272 343/273 319/270
f 403/482 319/484 228/478
f 344/309 190/292 364/310
f 276/644 275/642 263/638
f 268/84 266/90 267/79
f 290/46 288/54 282/51
f 250/5 247/10 248/9
f 316/636 263/638 9/637
f 275/642 324/641 263/638
f 232/741 237/749 424/748
f 504/318 331/331 505/338
f 511/334 365/308 512/330
f 432/322 369/298 506/324
f 332/316 361/307 367/299
f 368/286 369/298 434/306
f 365/308 366/325 332/316
f 361/307 332/316 508/326
f 507/315 361/307 514/323
f 361/307 360/291 367/299
f 332/316 366/325 513/335
f 516/347 70/354 517/358
f 189/300 344/309 502/317
f 331/331 189/300 521/336
f 437/693 436/694 567/695
f 342/272 357/275 428/278
f 346/271 345/277 357/275
f 368/286 360/291 369/298
f 357/275 342/272 346/271
f 403/274 345/277 346/271
f 409/284 185/289 401/297
f 185/289 409/284 403/274
f 190/292 189/300 406/281
f 189/300 365/308 406/281
f 187/302 188/311 340/320
f 190/292 370/294 364/310
f 362/847 363/848 408/849
f 362/847 371/850 363/848
f 408/290 370/294 190/292
f 409/284 326/304 188/311
f 186/319 364/310 187/302
f 370/294 409/284 187/302
f 409/284 370/294 363/288
f 407/280 403/274 409/284
f 363/288 407/280 409/284
f 407/280 371/295 408/290
f 371/295 407/280 363/288
f 408/860 371/861 362/862
f 408/290 363/288 370/294
f 407/280 408/290 356/285
f 406/281 367/299 360/291
f 368/286 406/281 360/291
f 406/281 365/308 367/299
f 406/281 345/277 356/285
f 357/275 345/277 406/281
f 406/281 368/286 357/275
f 403/274 407/280 345/277
f 356/285 345/277 407/280
f 349/823 405/826 348/824
f 359/833 350/834 404/835
f 358/446 350/440 359/447
f 405/818 359/819 404/820
f 405/826 404/825 348/824
f 349/777 350/780 352/778
f 353/798 355/800 354/801
f 351/802 354/803 355/804
f 328/439 330/442 351/436
f 352/778 354/781 351/779
f 349/445 351/436 330/442
f 12/441 334/443 347/438
f 351/436 347/438 328/439
f 12/441 347/438 13/437
f 347/438 334/443 328/439
f 350/440 6/444 13/437
f 355/800 353/798 350/797
f 351/802 355/804 350/805
f 349/445 330/442 359/447
f 350/822 348/824 404/825
f 349/821 359/819 405/818
f 330/442 358/446 359/447
f 358/446 6/444 350/440
f 396/643 324/641 11/646
f 193/645 334/648 12/647
f 6/630 395/628 394/624
f 335/414 328/412 334/423
f 329/419 330/422 327/413
f 343/490 242/488 319/484
f 238/493 233/492 343/490
f 341/495 238/493 343/490
f 343/273 342/272 341/276
f 341/276 342/272 439/279
f 403/274 346/271 319/270
f 228/478 320/477 402/480
f 402/480 403/482 228/478
f 399/296 185/289 403/274
f 403/274 402/303 399/296
f 399/479 320/477 321/476
f 184/457 185/465 337/463
f 399/468 337/463 185/465
f 184/305 401/297 185/289
f 184/305 289/313 401/297
f 190/292 344/309 189/300
f 289/313 322/312 401/297
f 409/284 401/297 326/304
f 322/312 326/304 401/297
f 322/464 46/467 325/469
f 322/464 210/461 46/467
f 193/645 324/641 275/642
f 278/401 275/410 277/406
f 278/401 265/398 264/394
f 264/394 400/397 278/401
f 400/397 264/394 287/393
f 278/401 338/405 275/410
f 338/405 278/401 400/397
f 335/414 193/415 338/405
f 335/414 338/405 336/409
f 336/409 400/397 333/404
f 400/397 397/400 333/404
f 397/400 400/397 287/393
f 244/460 337/463 321/466
f 228/478 244/475 320/477
f 226/481 244/475 228/478
f 244/460 226/462 229/458
f 242/488 240/489 243/487
f 241/486 239/485 243/487
f 319/484 243/487 239/485
f 227/483 319/484 239/485
f 227/483 226/481 228/478
f 228/478 319/484 227/483
f 242/488 343/490 233/492
f 329/419 270/418 443/426
f 444/432 392/427 446/435
f 398/408 262/411 270/418
f 329/419 398/408 270/418
f 441/631 395/628 447/632
f 398/408 327/413 333/404
f 262/411 260/403 253/407
f 398/408 397/400 260/403
f 287/393 260/403 397/400
f 260/403 262/411 398/408
f 260/403 287/393 252/399
f 262/411 271/421 270/418
f 448/621 269/618 449/623
f 269/618 393/629 440/626
f 394/624 395/628 269/618
f 324/641 10/640 263/638
f 395/628 393/629 269/618
f 8/620 394/624 269/618
f 452/451 330/442 455/452
f 8/620 259/615 22/617
f 354/801 352/799 353/798
f 6/444 358/446 450/448
f 419/622 258/616 448/621
f 392/427 270/418 271/421
f 236/743 234/742 429/745
f 447/632 6/630 459/633
f 422/57 246/35 461/50
f 468/496 341/495 469/498
f 195/367 40/365 196/362
f 227/7 241/4 249/3
f 199/660 198/663 197/661
f 327/413 330/422 328/412
f 258/616 259/615 269/618
f 207/73 267/79 272/52
f 279/69 207/73 272/52
f 107/704 196/706 105/707
f 301/677 300/674 213/673
f 198/663 314/668 40/666
f 107/704 152/710 313/708
f 313/708 195/705 107/704
f 313/230 152/237 315/235
f 299/675 205/676 213/673
f 315/671 40/666 314/668
f 198/678 298/680 314/683
f 158/104 293/82 311/99
f 299/675 198/678 205/676
f 299/675 298/680 198/678
f 217/21 230/6 216/16
f 225/12 216/16 230/6
f 258/616 261/619 283/613
f 223/1 235/17 245/14
f 238/493 237/494 233/492
f 430/744 232/741 431/746
f 226/11 230/6 231/15
f 230/6 224/2 225/12
f 213/673 200/682 212/679
f 198/678 199/681 205/676
f 197/661 198/663 195/664
f 365/308 189/300 504/318
f 193/415 335/414 334/423
f 524/700 437/693 569/698
f 327/413 398/408 329/419
f 394/624 7/627 6/630
f 333/404 328/412 336/409
f 454/428 329/419 470/433
f 320/477 399/479 402/480
f 184/457 337/463 244/460
f 328/412 333/404 327/413
f 340/320 326/304 325/321
f 326/304 322/312 325/321
f 210/461 208/470 46/467
f 193/415 275/410 338/405
f 400/397 336/409 338/405
f 337/463 399/468 321/466
f 229/458 184/457 244/460
f 242/488 243/487 319/484
f 397/400 398/408 333/404
f 269/618 259/615 8/620
f 198/663 40/666 195/664
f 248/9 247/10 245/14
f 281/402 265/398 277/406
f 301/609 317/607 318/611
f 299/232 300/236 318/234
f 316/636 284/639 263/638
f 317/607 212/605 302/606
f 200/62 213/48 202/55
f 159/243 156/240 153/245
f 118/193 154/181 120/179
f 51/381 122/382 131/383
f 49/80 87/95 43/91
f 173/528 169/529 528/530
f 122/382 51/381 123/379
f 100/155 111/170 98/182
f 87/95 49/80 81/97
f 76/568 378/569 69/570
f 136/256 139/258 161/255
f 77/111 78/105 81/97
f 52/124 92/119 79/113
f 151/711 106/709 94/712
f 113/144 99/135 97/157
f 152/710 107/704 106/709
f 87/95 89/112 157/117
f 166/806 168/807 163/808
f 137/262 138/260 473/264
f 112/247 159/243 153/245
f 113/242 156/240 152/237
f 156/240 159/243 35/241
f 145/544 160/556 530/559
f 160/503 84/504 167/505
f 183/208 64/162 476/201
f 180/199 64/162 183/208
f 475/219 183/208 477/215
f 50/384 65/388 480/389
f 166/806 163/808 162/809
f 165/513 182/526 538/525
f 164/507 163/509 167/505
f 55/198 56/175 175/200
f 182/212 165/218 180/199
f 540/510 84/504 541/512
f 73/177 179/210 542/216
f 176/209 178/213 534/220
f 542/216 175/200 547/221
f 179/210 177/203 59/202
f 165/218 178/213 180/199
f 180/199 181/186 64/162
f 536/854 164/855 545/856
f 180/199 183/208 182/212
f 56/175 181/186 175/200
f 176/209 180/199 178/213
f 180/199 176/209 181/186
f 176/209 175/200 181/186
f 67/140 72/151 25/133
f 59/202 55/198 179/210
f 73/177 177/203 179/210
f 73/177 60/189 177/203
f 170/537 171/534 144/540
f 159/372 148/371 155/370
f 525/549 174/545 548/554
f 143/536 144/540 171/534
f 550/541 145/544 551/548
f 146/538 172/532 170/537
f 144/540 146/538 170/537
f 169/529 109/539 143/536
f 143/536 171/534 169/529
f 170/537 172/532 171/534
f 169/827 173/828 174/829
f 71/550 110/546 150/542
f 117/543 109/539 110/546
f 528/530 172/532 556/533
f 541/512 73/508 543/517
f 131/261 122/263 139/258
f 530/559 167/562 557/563
f 557/563 166/564 558/565
f 165/513 162/519 163/509
f 562/522 165/513 563/523
f 166/806 162/809 561/810
f 128/253 90/252 149/249
f 130/154 154/181 115/169
f 128/253 136/256 161/255
f 80/101 81/97 86/92
f 136/256 126/254 124/257
f 139/258 136/256 141/259
f 130/154 120/179 154/181
f 142/547 160/556 145/544
f 160/503 142/506 84/504
f 65/269 140/268 147/266
f 124/205 125/191 141/207
f 147/266 137/262 474/265
f 138/260 131/261 139/258
f 95/121 158/104 103/110
f 148/248 159/243 112/247
f 148/371 108/374 91/373
f 156/240 113/242 153/245
f 169/529 150/542 109/539
f 158/228 104/229 313/230
f 153/841 113/842 97/843
f 95/121 99/135 113/144
f 142/547 144/540 117/543
f 129/251 149/249 112/247
f 35/241 159/243 155/246
f 151/244 113/242 152/237
f 315/235 152/237 156/240
f 112/195 114/194 129/211
f 148/248 112/247 149/249
f 101/130 99/135 95/121
f 103/110 18/115 102/122
f 101/130 135/142 130/154
f 135/142 133/134 484/153
f 123/379 161/378 139/380
f 139/258 141/259 138/260
f 145/544 146/538 144/540
f 125/191 124/205 120/179
f 139/380 122/382 123/379
f 138/180 141/207 125/191
f 126/254 136/256 128/253
f 121/385 131/383 137/386
f 124/257 141/259 136/256
f 138/180 119/168 135/142
f 483/192 135/142 487/204
f 135/142 101/130 133/134
f 101/130 102/122 133/134
f 101/130 127/143 99/135
f 39/145 1/158 491/172
f 132/131 102/122 5/126
f 158/104 134/103 103/110
f 5/126 102/122 18/115
f 39/145 132/131 4/136
f 1/158 39/145 4/136
f 132/131 133/134 102/122
f 494/159 39/145 495/173
f 127/143 101/130 130/154
f 119/168 125/191 120/179
f 125/191 119/168 138/180
f 120/179 124/205 118/193
f 124/205 126/217 118/193
f 75/761 74/762 24/763
f 120/179 130/154 119/168
f 118/193 126/217 129/211
f 100/155 99/135 127/143
f 111/170 100/155 127/143
f 115/169 114/194 111/170
f 153/196 98/182 112/195
f 98/182 111/170 112/195
f 118/193 129/211 114/194
f 111/790 114/791 112/792
f 110/546 109/539 150/542
f 48/750 47/751 30/752
f 116/551 75/555 117/543
f 118/193 115/169 154/181
f 116/551 117/543 110/546
f 85/649 75/650 116/651
f 155/370 53/368 35/366
f 47/751 48/750 43/753
f 36/128 37/137 47/148
f 43/863 48/864 30/865
f 99/814 100/815 96/816
f 115/169 118/193 114/194
f 127/143 115/169 111/170
f 98/817 96/816 100/815
f 97/157 96/171 98/182
f 96/171 97/157 99/135
f 94/712 95/713 151/711
f 94/712 106/709 95/713
f 106/709 107/704 105/707
f 95/121 103/110 102/122
f 158/104 95/121 104/125
f 151/711 152/710 106/709
f 95/672 106/669 104/667
f 102/122 101/130 95/121
f 93/120 92/119 52/124
f 79/113 83/106 51/118
f 92/119 93/120 82/107
f 80/101 83/106 79/113
f 52/124 25/133 93/120
f 79/113 82/107 80/101
f 81/97 78/105 87/95
f 88/579 157/580 89/581
f 86/92 83/106 80/101
f 41/127 37/137 36/128
f 89/112 87/95 78/105
f 88/116 78/105 77/111
f 82/107 79/113 92/119
f 93/120 77/111 82/107
f 378/356 26/345 27/352
f 69/570 25/571 76/568
f 25/133 69/152 68/141
f 85/766 76/764 75/761
f 58/165 72/151 67/140
f 72/151 58/165 73/177
f 73/177 58/165 60/189
f 68/141 93/120 25/133
f 54/139 67/140 52/124
f 66/163 61/188 57/164
f 67/140 25/133 52/124
f 66/163 57/164 54/139
f 29/132 63/150 54/139
f 472/174 29/132 496/161
f 63/150 29/132 64/162
f 64/162 181/186 56/175
f 56/175 55/198 62/176
f 57/164 61/188 58/165
f 61/188 60/189 58/165
f 61/188 66/163 62/176
f 59/202 177/203 60/189
f 62/176 55/198 59/202
f 62/176 59/202 61/188
f 63/150 66/163 54/139
f 54/139 57/164 67/140
f 67/140 57/164 58/165
f 29/132 50/129 481/138
f 52/124 51/118 50/129
f 51/118 52/124 79/113
f 50/129 29/132 52/124
f 29/132 54/139 52/124
f 49/80 86/92 81/97
f 42/123 36/128 87/95
f 36/128 42/123 41/127
f 53/86 86/92 49/80
f 53/86 49/80 33/71
f 34/87 53/86 33/71
f 49/80 43/91 44/85
f 32/74 33/71 49/80
f 41/582 373/583 45/585
f 44/474 38/473 32/472
f 32/74 208/63 33/71
f 47/751 43/753 36/754
f 86/375 53/368 91/373
f 47/844 31/845 30/846
f 374/575 375/578 93/577
f 26/345 28/333 27/352
f 364/310 186/319 28/333
f 28/333 391/340 388/350
f 375/596 387/589 93/593
f 387/355 388/350 389/339
f 389/339 391/340 186/319
f 186/319 187/302 385/332
f 31/591 41/582 30/588
f 384/349 389/339 385/332
f 387/589 384/584 77/586
f 175/200 176/209 546/214
f 44/85 32/74 49/80
f 82/107 81/97 80/101
f 364/310 28/333 390/327
f 28/333 186/319 391/340
f 344/309 390/327 339/329
f 379/346 26/345 377/357
f 390/327 379/346 339/329
f 378/356 377/357 26/345
f 379/346 390/327 26/345
f 27/352 388/350 378/356
f 374/359 378/356 388/350
f 26/345 390/327 28/333
f 388/350 27/352 28/333
f 390/327 344/309 364/310
f 388/350 391/340 389/339
f 389/339 384/349 387/355
f 388/350 387/355 374/359
f 375/360 374/359 387/355
f 386/351 340/320 323/342
f 385/332 389/339 186/319
f 340/320 386/351 372/341
f 372/587 373/583 384/584
f 384/349 385/332 372/341
f 372/341 385/332 340/320
f 386/592 323/595 45/585
f 384/584 373/583 88/579
f 88/579 77/586 384/584
f 45/585 373/583 372/587
f 323/471 325/469 46/467
f 323/342 340/320 325/321
f 383/782 380/783 382/784
f 381/786 383/787 382/788
f 383/782 381/785 380/783
f 77/586 93/593 387/589
f 93/577 68/573 374/575
f 376/574 377/572 76/568
f 377/572 378/569 76/568
f 76/568 85/576 376/574
f 85/649 70/653 376/655
f 71/652 150/654 70/653
f 41/582 157/580 88/579
f 45/585 30/588 41/582
f 88/579 373/583 41/582
f 376/353 70/354 339/329
f 379/346 376/353 339/329
f 376/353 379/346 377/357
f 38/594 44/590 45/585
f 38/473 46/467 32/472
f 142/506 24/516 72/511
f 61/188 59/202 60/189
f 36/754 43/753 87/755
f 174/829 173/828 555/830
f 179/210 55/198 175/200
f 38/473 323/471 46/467
f 30/588 45/585 44/590
f 34/363 40/365 35/366
f 161/378 123/379 83/376
f 81/97 82/107 77/111
f 155/370 148/371 53/368
f 130/154 135/142 119/168
f 164/507 165/513 163/509
f 164/507 178/518 165/513
f 167/505 84/504 164/507
f 73/508 84/504 142/506
f 172/532 146/538 554/535
f 169/529 171/534 172/532
f 168/514 167/505 163/509
f 117/543 75/555 24/552
f 145/544 144/540 142/547
f 143/536 117/543 144/540
f 140/268 137/262 147/266
f 113/144 151/156 95/121
f 98/182 153/196 97/157
f 117/543 143/536 109/539
f 85/649 116/651 71/652
f 110/546 71/550 116/551
f 149/249 108/250 148/248
f 129/251 128/253 149/249
f 90/252 128/253 161/255
f 131/383 121/385 50/384
f 137/262 131/261 138/260
f 121/385 137/386 140/387
f 478/721 147/722 486/723
f 140/387 65/388 50/384
f 24/552 142/547 117/543
f 128/253 129/251 126/254
f 133/134 132/131 493/146
f 132/131 5/126 4/136
f 115/169 127/143 130/154
f 108/250 149/249 90/252
f 74/762 25/765 24/763
f 37/137 41/127 31/147
f 148/371 91/373 53/368
f 105/665 104/667 106/669
f 46/467 208/470 32/472
f 83/376 90/377 161/378
f 157/117 42/123 87/95
f 88/116 89/112 78/105
f 44/85 43/91 30/96
f 42/123 157/117 41/127
f 51/381 83/376 123/379
f 72/511 73/508 142/506
f 63/150 64/162 56/175
f 62/176 63/150 56/175
f 66/163 63/150 62/176
f 50/384 121/385 140/387
f 50/384 51/381 131/383
f 83/376 86/375 108/374
f 53/368 34/363 35/366
f 34/363 196/362 40/365
f 517/656 150/654 527/657
f 372/587 386/592 45/585
f 340/320 385/332 187/302
f 323/595 38/594 45/585
f 382/788 380/789 381/786
f 378/569 374/575 68/573
f 71/652 70/653 85/649
f 25/521 72/511 24/516
f 108/374 86/375 91/373
f 150/542 169/529 174/545
f 168/566 166/564 167/562
f 76/764 74/762 75/761
f 25/765 74/762 76/764
f 90/377 83/376 108/374
f 37/137 31/147 47/148
f 378/569 68/573 69/570
f 22/617 259/615 23/614
f 17/109 20/93 19/102
f 396/643 10/640 324/641
f 8/620 7/627 394/624
f 11/646 324/641 12/647
f 15/836 16/837 2/838
f 14/839 16/837 15/836
f 16/837 14/839 3/840
f 2/838 16/837 3/840
f 410/502 238/493 411/499
f 411/499 238/493 468/496
f 412/625 261/619 419/622
f 413/717 21/714 412/716
f 414/38 245/14 417/30
f 415/45 246/35 414/38
f 416/24 235/17 418/31
f 417/30 245/14 416/24
f 418/31 235/17 465/27
f 419/622 261/619 258/616
f 420/430 392/427 271/421
f 421/425 271/421 254/417
f 422/429 254/417 246/434
f 423/497 238/493 466/501
f 424/500 237/494 423/497
f 425/22 235/17 236/13
f 426/880 236/881 464/882
f 427/282 368/286 438/293
f 428/278 357/275 427/282
f 429/745 234/742 430/744
f 430/744 234/742 232/741
f 431/746 232/741 424/748
f 523/697 432/699 566/701
f 433/314 369/298 432/322
f 434/306 369/298 433/314
f 435/301 368/286 434/306
f 438/293 368/286 435/301
f 439/279 342/272 428/278
f 440/626 393/629 441/631
f 441/631 393/629 395/628
f 442/283 341/276 439/279
f 443/426 270/418 444/432
f 444/432 270/418 392/427
f 445/431 329/419 443/426
f 446/435 392/427 420/430
f 447/632 395/628 6/630
f 448/621 258/616 269/618
f 449/623 269/618 440/626
f 450/448 358/446 451/450
f 451/450 358/446 452/451
f 452/451 358/446 330/442
f 453/454 330/442 454/455
f 454/428 330/422 329/419
f 455/452 330/442 456/453
f 456/453 330/442 453/454
f 457/449 6/444 450/448
f 458/747 236/743 429/745
f 459/633 6/630 457/634
f 460/719 21/714 413/717
f 461/50 246/35 415/45
f 462/876 236/877 463/878
f 463/878 236/877 458/879
f 464/882 236/881 462/883
f 465/27 235/17 425/22
f 466/873 238/874 410/875
f 468/496 238/493 341/495
f 469/287 341/276 442/283
f 470/433 329/419 445/431
f 471/187 64/162 472/174
f 472/174 64/162 29/132
f 473/206 138/180 483/192
f 474/265 137/262 473/264
f 532/223 475/219 571/225
f 475/219 182/212 183/208
f 476/201 64/162 471/187
f 477/215 183/208 476/201
f 478/721 65/724 147/722
f 479/726 65/724 478/721
f 480/389 65/388 479/391
f 481/390 50/384 480/389
f 482/267 147/266 474/265
f 483/192 138/180 135/142
f 484/153 133/134 490/167
f 485/166 135/142 484/153
f 486/723 147/722 482/725
f 487/204 135/142 489/190
f 488/178 135/142 485/166
f 489/190 135/142 488/178
f 490/167 133/134 500/160
f 491/172 1/158 501/184
f 492/183 39/145 491/172
f 493/146 132/131 494/159
f 494/159 132/131 39/145
f 495/173 39/145 498/185
f 496/161 29/132 497/149
f 497/149 29/132 481/138
f 498/185 39/145 499/197
f 499/197 39/145 492/183
f 500/160 133/134 493/146
f 502/317 344/309 339/329
f 503/337 339/329 516/347
f 504/318 189/300 331/331
f 505/727 331/728 510/729
f 506/324 369/298 507/315
f 507/315 369/298 361/307
f 508/866 332/867 509/868
f 509/868 332/867 515/869
f 510/729 331/728 518/730
f 511/334 366/325 365/308
f 512/330 365/308 504/318
f 513/335 366/325 511/334
f 514/323 361/307 508/326
f 515/344 332/316 513/335
f 516/347 339/329 70/354
f 517/656 70/653 150/654
f 518/730 331/728 519/731
f 519/731 331/728 522/732
f 520/328 189/300 502/317
f 521/336 189/300 520/328
f 522/348 331/331 521/336
f 523/697 436/694 432/699
f 524/700 467/702 437/693
f 525/549 150/542 174/545
f 526/658 150/654 525/659
f 527/657 150/654 526/658
f 528/530 169/529 172/532
f 529/531 173/528 528/530
f 530/559 160/556 167/562
f 531/560 145/544 530/559
f 532/223 182/212 475/219
f 533/227 182/212 572/226
f 534/220 178/213 535/224
f 535/859 178/857 537/858
f 536/854 178/857 164/855
f 537/858 178/857 536/854
f 538/525 182/526 533/527
f 539/524 165/513 538/525
f 540/510 164/507 84/504
f 541/512 84/504 73/508
f 542/216 179/210 175/200
f 543/222 73/177 542/216
f 544/515 164/507 540/510
f 545/520 164/507 544/515
f 546/214 176/209 534/220
f 547/221 175/200 546/214
f 548/554 174/545 549/558
f 549/558 174/545 565/561
f 550/541 146/538 145/544
f 551/548 145/544 552/553
f 552/553 145/544 553/557
f 553/557 145/544 531/560
f 554/535 146/538 550/541
f 555/830 173/828 529/832
f 556/533 172/532 554/535
f 557/563 167/562 166/564
f 558/565 166/564 559/567
f 559/813 166/806 560/812
f 560/812 166/806 564/811
f 561/870 162/871 562/872
f 562/522 162/519 165/513
f 563/523 165/513 539/524
f 564/811 166/806 561/810
f 565/831 174/829 555/830
f 566/343 432/322 506/324
f 567/695 436/694 523/697
f 568/696 437/693 567/695
f 569/698 437/693 568/696
f 570/703 467/702 524/700
f 572/226 182/212 532/223
usemtl Tile_+034_+029_L18_00010_untextured
